%TF.GenerationSoftware,KiCad,Pcbnew,9.0.6*%
%TF.CreationDate,2025-12-24T14:28:19+01:00*%
%TF.ProjectId,SpinKeys,5370696e-4b65-4797-932e-6b696361645f,rev?*%
%TF.SameCoordinates,Original*%
%TF.FileFunction,Soldermask,Bot*%
%TF.FilePolarity,Negative*%
%FSLAX46Y46*%
G04 Gerber Fmt 4.6, Leading zero omitted, Abs format (unit mm)*
G04 Created by KiCad (PCBNEW 9.0.6) date 2025-12-24 14:28:19*
%MOMM*%
%LPD*%
G01*
G04 APERTURE LIST*
%ADD10C,1.700000*%
%ADD11C,4.000000*%
%ADD12C,2.200000*%
%ADD13C,1.400000*%
%ADD14R,2.000000X2.000000*%
%ADD15C,2.000000*%
%ADD16C,3.200000*%
%ADD17C,1.524000*%
G04 APERTURE END LIST*
D10*
%TO.C,SW5*%
X122510000Y-58900000D03*
D11*
X127590000Y-58900000D03*
D10*
X132670000Y-58900000D03*
D12*
X130130000Y-53820000D03*
X123780000Y-56360000D03*
%TD*%
D13*
%TO.C,OL1*%
X103850000Y-26360000D03*
X103850000Y-28900000D03*
X103850000Y-31440000D03*
X103850000Y-33980000D03*
%TD*%
D14*
%TO.C,RC1*%
X71950000Y-75600000D03*
D15*
X71950000Y-80600000D03*
X71950000Y-78100000D03*
D16*
X79450000Y-72500000D03*
X79450000Y-83700000D03*
D15*
X86450000Y-80600000D03*
X86450000Y-75600000D03*
%TD*%
D10*
%TO.C,SW1*%
X93980000Y-78000000D03*
D11*
X99060000Y-78000000D03*
D10*
X104140000Y-78000000D03*
D12*
X101600000Y-72920000D03*
X95250000Y-75460000D03*
%TD*%
D10*
%TO.C,SW2*%
X113030000Y-78000000D03*
D11*
X118110000Y-78000000D03*
D10*
X123190000Y-78000000D03*
D12*
X120650000Y-72920000D03*
X114300000Y-75460000D03*
%TD*%
D16*
%TO.C,REF\u002A\u002A*%
X72500000Y-92000000D03*
%TD*%
%TO.C,REF\u002A\u002A*%
X144500000Y-27000000D03*
%TD*%
D14*
%TO.C,RC2*%
X130050000Y-75600000D03*
D15*
X130050000Y-80600000D03*
X130050000Y-78100000D03*
D16*
X137550000Y-72500000D03*
X137550000Y-83700000D03*
D15*
X144550000Y-80600000D03*
X144550000Y-75600000D03*
%TD*%
D17*
%TO.C,U1*%
X81880000Y-25948500D03*
X81880000Y-28488500D03*
X81880000Y-31028500D03*
X81880000Y-33568500D03*
X81880000Y-36108500D03*
X81880000Y-38648500D03*
X81880000Y-41188500D03*
X97120000Y-41188500D03*
X97120000Y-38648500D03*
X97120000Y-36108500D03*
X97120000Y-33568500D03*
X97120000Y-31028500D03*
X97120000Y-28488500D03*
X97120000Y-25948500D03*
%TD*%
D10*
%TO.C,SW3*%
X84410000Y-58900000D03*
D11*
X89490000Y-58900000D03*
D10*
X94570000Y-58900000D03*
D12*
X92030000Y-53820000D03*
X85680000Y-56360000D03*
%TD*%
D16*
%TO.C,REF\u002A\u002A*%
X144500000Y-92000000D03*
%TD*%
D10*
%TO.C,SW4*%
X103460000Y-58900000D03*
D11*
X108540000Y-58900000D03*
D10*
X113620000Y-58900000D03*
D12*
X111080000Y-53820000D03*
X104730000Y-56360000D03*
%TD*%
D16*
%TO.C,REF\u002A\u002A*%
X72500000Y-27000000D03*
%TD*%
M02*
