M48
; DRILL file {KiCad 9.0.6} date 2025-12-24T14:29:13+0100
; FORMAT={-:-/ absolute / metric / decimal}
; #@! TF.CreationDate,2025-12-24T14:29:13+01:00
; #@! TF.GenerationSoftware,Kicad,Pcbnew,9.0.6
; #@! TF.FileFunction,Plated,1,2,PTH
FMAT,2
METRIC
; #@! TA.AperFunction,Plated,PTH,ComponentDrill
T1C0.889
; #@! TA.AperFunction,Plated,PTH,ComponentDrill
T2C1.000
; #@! TA.AperFunction,Plated,PTH,ComponentDrill
T3C1.500
; #@! TA.AperFunction,Plated,PTH,ComponentDrill
T4C2.600
%
G90
G05
T1
X81.88Y-25.948
X81.88Y-28.488
X81.88Y-31.028
X81.88Y-33.569
X81.88Y-36.108
X81.88Y-38.648
X81.88Y-41.188
X97.12Y-25.948
X97.12Y-28.488
X97.12Y-31.028
X97.12Y-33.569
X97.12Y-36.108
X97.12Y-38.648
X97.12Y-41.188
T2
X71.95Y-75.6
X71.95Y-78.1
X71.95Y-80.6
X86.45Y-75.6
X86.45Y-80.6
X103.85Y-26.36
X103.85Y-28.9
X103.85Y-31.44
X103.85Y-33.98
X130.05Y-75.6
X130.05Y-78.1
X130.05Y-80.6
X144.55Y-75.6
X144.55Y-80.6
T3
X85.68Y-56.36
X92.03Y-53.82
X95.25Y-75.46
X101.6Y-72.92
X104.73Y-56.36
X111.08Y-53.82
X114.3Y-75.46
X120.65Y-72.92
X123.78Y-56.36
X130.13Y-53.82
T4
X79.45Y-72.5
X79.45Y-83.7
X137.55Y-72.5
X137.55Y-83.7
M30
