ISO-10303-21;
HEADER;
/* Generated by software containing ST-Developer
 * from STEP Tools, Inc. (www.steptools.com) 
 */
/* OPTION: using custom renumber hook */

FILE_DESCRIPTION(
/* description */ ('STEP AP242 Edition 2',
'CAx-IF Rec.Pracs.---Representation and Presentation of Product Manufa
cturing Information (PMI)---4.0---2014-10-13',
'CAx-IF Rec.Pracs.---3D Tessellated Geometry---0.4---2014-09-14','2;1',
'CAx-IF Rec.Pracs.---User Defined Attributes---1.5---2016-08-15'),
/* implementation_level */ '2;1');

FILE_NAME(
/* name */ '6948165b492a9ffd1b6a337d',
/* time_stamp */ '2025-12-21T15:46:36Z',
/* author */ (''),
/* organization */ (''),
/* preprocessor_version */ 'ST-DEVELOPER v20',
/* originating_system */ 'ONSHAPE BY PTC INC, 1.208',
/* authorisation */ '  ');

FILE_SCHEMA (('AP242_MANAGED_MODEL_BASED_3D_ENGINEERING_MIM_LF { 1 0 10303 442 3 1 4 }'));
ENDSEC;

DATA;
#10=SHAPE_REPRESENTATION_RELATIONSHIP('','',#571,#11);
#11=ADVANCED_BREP_SHAPE_REPRESENTATION('',(#569),#925);
#12=CIRCLE('',#575,0.008);
#13=CIRCLE('',#576,0.008);
#14=CIRCLE('',#579,0.008);
#15=CIRCLE('',#580,0.008);
#16=CIRCLE('',#583,0.008);
#17=CIRCLE('',#584,0.008);
#18=CIRCLE('',#597,0.0075);
#19=CIRCLE('',#598,0.0075);
#20=CIRCLE('',#600,0.0075);
#21=CIRCLE('',#601,0.0075);
#22=CIRCLE('',#605,0.008);
#23=CIRCLE('',#606,0.008);
#24=CIRCLE('',#608,0.0017);
#25=CIRCLE('',#609,0.0017);
#26=CIRCLE('',#610,0.0017);
#27=CIRCLE('',#611,0.0017);
#28=CIRCLE('',#613,0.0017);
#29=CIRCLE('',#614,0.0017);
#30=CIRCLE('',#615,0.0017);
#31=CIRCLE('',#616,0.0017);
#32=CYLINDRICAL_SURFACE('',#574,0.008);
#33=CYLINDRICAL_SURFACE('',#578,0.008);
#34=CYLINDRICAL_SURFACE('',#582,0.008);
#35=CYLINDRICAL_SURFACE('',#596,0.0075);
#36=CYLINDRICAL_SURFACE('',#599,0.0075);
#37=CYLINDRICAL_SURFACE('',#604,0.008);
#38=CYLINDRICAL_SURFACE('',#617,0.0017);
#39=CYLINDRICAL_SURFACE('',#618,0.0017);
#40=CYLINDRICAL_SURFACE('',#619,0.0017);
#41=CYLINDRICAL_SURFACE('',#620,0.0017);
#42=ORIENTED_EDGE('',*,*,#186,.F.);
#43=ORIENTED_EDGE('',*,*,#187,.F.);
#44=ORIENTED_EDGE('',*,*,#188,.T.);
#45=ORIENTED_EDGE('',*,*,#189,.T.);
#46=ORIENTED_EDGE('',*,*,#190,.T.);
#47=ORIENTED_EDGE('',*,*,#191,.F.);
#48=ORIENTED_EDGE('',*,*,#192,.F.);
#49=ORIENTED_EDGE('',*,*,#187,.T.);
#50=ORIENTED_EDGE('',*,*,#193,.F.);
#51=ORIENTED_EDGE('',*,*,#194,.F.);
#52=ORIENTED_EDGE('',*,*,#195,.T.);
#53=ORIENTED_EDGE('',*,*,#191,.T.);
#54=ORIENTED_EDGE('',*,*,#196,.T.);
#55=ORIENTED_EDGE('',*,*,#197,.F.);
#56=ORIENTED_EDGE('',*,*,#198,.F.);
#57=ORIENTED_EDGE('',*,*,#194,.T.);
#58=ORIENTED_EDGE('',*,*,#199,.T.);
#59=ORIENTED_EDGE('',*,*,#200,.F.);
#60=ORIENTED_EDGE('',*,*,#201,.F.);
#61=ORIENTED_EDGE('',*,*,#197,.T.);
#62=ORIENTED_EDGE('',*,*,#202,.T.);
#63=ORIENTED_EDGE('',*,*,#203,.F.);
#64=ORIENTED_EDGE('',*,*,#204,.F.);
#65=ORIENTED_EDGE('',*,*,#200,.T.);
#66=ORIENTED_EDGE('',*,*,#205,.T.);
#67=ORIENTED_EDGE('',*,*,#206,.F.);
#68=ORIENTED_EDGE('',*,*,#207,.F.);
#69=ORIENTED_EDGE('',*,*,#203,.T.);
#70=ORIENTED_EDGE('',*,*,#208,.F.);
#71=ORIENTED_EDGE('',*,*,#209,.F.);
#72=ORIENTED_EDGE('',*,*,#210,.T.);
#73=ORIENTED_EDGE('',*,*,#211,.T.);
#74=ORIENTED_EDGE('',*,*,#212,.T.);
#75=ORIENTED_EDGE('',*,*,#213,.F.);
#76=ORIENTED_EDGE('',*,*,#214,.F.);
#77=ORIENTED_EDGE('',*,*,#209,.T.);
#78=ORIENTED_EDGE('',*,*,#215,.T.);
#79=ORIENTED_EDGE('',*,*,#216,.F.);
#80=ORIENTED_EDGE('',*,*,#217,.F.);
#81=ORIENTED_EDGE('',*,*,#213,.T.);
#82=ORIENTED_EDGE('',*,*,#218,.F.);
#83=ORIENTED_EDGE('',*,*,#219,.F.);
#84=ORIENTED_EDGE('',*,*,#220,.T.);
#85=ORIENTED_EDGE('',*,*,#221,.T.);
#86=ORIENTED_EDGE('',*,*,#222,.T.);
#87=ORIENTED_EDGE('',*,*,#223,.F.);
#88=ORIENTED_EDGE('',*,*,#224,.F.);
#89=ORIENTED_EDGE('',*,*,#219,.T.);
#90=ORIENTED_EDGE('',*,*,#225,.T.);
#91=ORIENTED_EDGE('',*,*,#226,.F.);
#92=ORIENTED_EDGE('',*,*,#227,.F.);
#93=ORIENTED_EDGE('',*,*,#223,.T.);
#94=ORIENTED_EDGE('',*,*,#228,.F.);
#95=ORIENTED_EDGE('',*,*,#229,.F.);
#96=ORIENTED_EDGE('',*,*,#230,.T.);
#97=ORIENTED_EDGE('',*,*,#226,.T.);
#98=ORIENTED_EDGE('',*,*,#231,.F.);
#99=ORIENTED_EDGE('',*,*,#232,.F.);
#100=ORIENTED_EDGE('',*,*,#233,.T.);
#101=ORIENTED_EDGE('',*,*,#229,.T.);
#102=ORIENTED_EDGE('',*,*,#234,.F.);
#103=ORIENTED_EDGE('',*,*,#235,.F.);
#104=ORIENTED_EDGE('',*,*,#236,.T.);
#105=ORIENTED_EDGE('',*,*,#232,.T.);
#106=ORIENTED_EDGE('',*,*,#237,.T.);
#107=ORIENTED_EDGE('',*,*,#238,.F.);
#108=ORIENTED_EDGE('',*,*,#239,.F.);
#109=ORIENTED_EDGE('',*,*,#235,.T.);
#110=ORIENTED_EDGE('',*,*,#240,.T.);
#111=ORIENTED_EDGE('',*,*,#241,.F.);
#112=ORIENTED_EDGE('',*,*,#242,.T.);
#113=ORIENTED_EDGE('',*,*,#243,.F.);
#114=ORIENTED_EDGE('',*,*,#244,.F.);
#115=ORIENTED_EDGE('',*,*,#211,.F.);
#116=ORIENTED_EDGE('',*,*,#245,.T.);
#117=ORIENTED_EDGE('',*,*,#216,.T.);
#118=ORIENTED_EDGE('',*,*,#246,.F.);
#119=ORIENTED_EDGE('',*,*,#221,.F.);
#120=ORIENTED_EDGE('',*,*,#247,.T.);
#121=ORIENTED_EDGE('',*,*,#238,.T.);
#122=ORIENTED_EDGE('',*,*,#248,.T.);
#123=ORIENTED_EDGE('',*,*,#189,.F.);
#124=ORIENTED_EDGE('',*,*,#249,.F.);
#125=ORIENTED_EDGE('',*,*,#206,.T.);
#126=ORIENTED_EDGE('',*,*,#250,.F.);
#127=ORIENTED_EDGE('',*,*,#251,.F.);
#128=ORIENTED_EDGE('',*,*,#252,.F.);
#129=ORIENTED_EDGE('',*,*,#253,.F.);
#130=ORIENTED_EDGE('',*,*,#220,.F.);
#131=ORIENTED_EDGE('',*,*,#224,.T.);
#132=ORIENTED_EDGE('',*,*,#227,.T.);
#133=ORIENTED_EDGE('',*,*,#230,.F.);
#134=ORIENTED_EDGE('',*,*,#233,.F.);
#135=ORIENTED_EDGE('',*,*,#236,.F.);
#136=ORIENTED_EDGE('',*,*,#239,.T.);
#137=ORIENTED_EDGE('',*,*,#247,.F.);
#138=ORIENTED_EDGE('',*,*,#210,.F.);
#139=ORIENTED_EDGE('',*,*,#214,.T.);
#140=ORIENTED_EDGE('',*,*,#217,.T.);
#141=ORIENTED_EDGE('',*,*,#245,.F.);
#142=ORIENTED_EDGE('',*,*,#242,.F.);
#143=ORIENTED_EDGE('',*,*,#240,.F.);
#144=ORIENTED_EDGE('',*,*,#188,.F.);
#145=ORIENTED_EDGE('',*,*,#192,.T.);
#146=ORIENTED_EDGE('',*,*,#195,.F.);
#147=ORIENTED_EDGE('',*,*,#198,.T.);
#148=ORIENTED_EDGE('',*,*,#201,.T.);
#149=ORIENTED_EDGE('',*,*,#204,.T.);
#150=ORIENTED_EDGE('',*,*,#207,.T.);
#151=ORIENTED_EDGE('',*,*,#249,.T.);
#152=ORIENTED_EDGE('',*,*,#254,.F.);
#153=ORIENTED_EDGE('',*,*,#255,.F.);
#154=ORIENTED_EDGE('',*,*,#256,.F.);
#155=ORIENTED_EDGE('',*,*,#257,.F.);
#156=ORIENTED_EDGE('',*,*,#218,.T.);
#157=ORIENTED_EDGE('',*,*,#246,.T.);
#158=ORIENTED_EDGE('',*,*,#237,.F.);
#159=ORIENTED_EDGE('',*,*,#234,.T.);
#160=ORIENTED_EDGE('',*,*,#231,.T.);
#161=ORIENTED_EDGE('',*,*,#228,.T.);
#162=ORIENTED_EDGE('',*,*,#225,.F.);
#163=ORIENTED_EDGE('',*,*,#222,.F.);
#164=ORIENTED_EDGE('',*,*,#208,.T.);
#165=ORIENTED_EDGE('',*,*,#244,.T.);
#166=ORIENTED_EDGE('',*,*,#215,.F.);
#167=ORIENTED_EDGE('',*,*,#212,.F.);
#168=ORIENTED_EDGE('',*,*,#243,.T.);
#169=ORIENTED_EDGE('',*,*,#241,.T.);
#170=ORIENTED_EDGE('',*,*,#186,.T.);
#171=ORIENTED_EDGE('',*,*,#248,.F.);
#172=ORIENTED_EDGE('',*,*,#205,.F.);
#173=ORIENTED_EDGE('',*,*,#202,.F.);
#174=ORIENTED_EDGE('',*,*,#199,.F.);
#175=ORIENTED_EDGE('',*,*,#196,.F.);
#176=ORIENTED_EDGE('',*,*,#193,.T.);
#177=ORIENTED_EDGE('',*,*,#190,.F.);
#178=ORIENTED_EDGE('',*,*,#257,.T.);
#179=ORIENTED_EDGE('',*,*,#253,.T.);
#180=ORIENTED_EDGE('',*,*,#256,.T.);
#181=ORIENTED_EDGE('',*,*,#252,.T.);
#182=ORIENTED_EDGE('',*,*,#255,.T.);
#183=ORIENTED_EDGE('',*,*,#251,.T.);
#184=ORIENTED_EDGE('',*,*,#254,.T.);
#185=ORIENTED_EDGE('',*,*,#250,.T.);
#186=EDGE_CURVE('',#258,#259,#310,.T.);
#187=EDGE_CURVE('',#260,#258,#311,.T.);
#188=EDGE_CURVE('',#260,#261,#312,.T.);
#189=EDGE_CURVE('',#261,#259,#313,.T.);
#190=EDGE_CURVE('',#258,#262,#12,.T.);
#191=EDGE_CURVE('',#263,#262,#314,.T.);
#192=EDGE_CURVE('',#260,#263,#13,.T.);
#193=EDGE_CURVE('',#264,#262,#315,.T.);
#194=EDGE_CURVE('',#265,#264,#316,.T.);
#195=EDGE_CURVE('',#265,#263,#317,.T.);
#196=EDGE_CURVE('',#264,#266,#14,.T.);
#197=EDGE_CURVE('',#267,#266,#318,.T.);
#198=EDGE_CURVE('',#265,#267,#15,.T.);
#199=EDGE_CURVE('',#266,#268,#319,.T.);
#200=EDGE_CURVE('',#269,#268,#320,.T.);
#201=EDGE_CURVE('',#267,#269,#321,.T.);
#202=EDGE_CURVE('',#268,#270,#16,.T.);
#203=EDGE_CURVE('',#271,#270,#322,.T.);
#204=EDGE_CURVE('',#269,#271,#17,.T.);
#205=EDGE_CURVE('',#270,#272,#323,.T.);
#206=EDGE_CURVE('',#273,#272,#324,.T.);
#207=EDGE_CURVE('',#271,#273,#325,.T.);
#208=EDGE_CURVE('',#274,#275,#326,.T.);
#209=EDGE_CURVE('',#276,#274,#327,.T.);
#210=EDGE_CURVE('',#276,#277,#328,.T.);
#211=EDGE_CURVE('',#277,#275,#329,.T.);
#212=EDGE_CURVE('',#274,#278,#330,.T.);
#213=EDGE_CURVE('',#279,#278,#331,.T.);
#214=EDGE_CURVE('',#276,#279,#332,.T.);
#215=EDGE_CURVE('',#278,#280,#333,.T.);
#216=EDGE_CURVE('',#281,#280,#334,.T.);
#217=EDGE_CURVE('',#279,#281,#335,.T.);
#218=EDGE_CURVE('',#282,#283,#336,.T.);
#219=EDGE_CURVE('',#284,#282,#337,.T.);
#220=EDGE_CURVE('',#284,#285,#338,.T.);
#221=EDGE_CURVE('',#285,#283,#339,.T.);
#222=EDGE_CURVE('',#282,#286,#340,.T.);
#223=EDGE_CURVE('',#287,#286,#341,.T.);
#224=EDGE_CURVE('',#284,#287,#342,.T.);
#225=EDGE_CURVE('',#286,#288,#343,.T.);
#226=EDGE_CURVE('',#289,#288,#344,.T.);
#227=EDGE_CURVE('',#287,#289,#345,.T.);
#228=EDGE_CURVE('',#290,#288,#346,.T.);
#229=EDGE_CURVE('',#291,#290,#347,.T.);
#230=EDGE_CURVE('',#291,#289,#348,.T.);
#231=EDGE_CURVE('',#292,#290,#349,.T.);
#232=EDGE_CURVE('',#293,#292,#350,.T.);
#233=EDGE_CURVE('',#293,#291,#351,.T.);
#234=EDGE_CURVE('',#294,#292,#352,.T.);
#235=EDGE_CURVE('',#295,#294,#353,.T.);
#236=EDGE_CURVE('',#295,#293,#354,.T.);
#237=EDGE_CURVE('',#294,#296,#355,.T.);
#238=EDGE_CURVE('',#297,#296,#356,.T.);
#239=EDGE_CURVE('',#295,#297,#357,.T.);
#240=EDGE_CURVE('',#298,#298,#18,.T.);
#241=EDGE_CURVE('',#299,#299,#19,.T.);
#242=EDGE_CURVE('',#300,#300,#20,.T.);
#243=EDGE_CURVE('',#301,#301,#21,.T.);
#244=EDGE_CURVE('',#275,#280,#358,.T.);
#245=EDGE_CURVE('',#277,#281,#359,.T.);
#246=EDGE_CURVE('',#283,#296,#360,.T.);
#247=EDGE_CURVE('',#285,#297,#361,.T.);
#248=EDGE_CURVE('',#272,#259,#22,.T.);
#249=EDGE_CURVE('',#273,#261,#23,.T.);
#250=EDGE_CURVE('',#302,#302,#24,.T.);
#251=EDGE_CURVE('',#303,#303,#25,.T.);
#252=EDGE_CURVE('',#304,#304,#26,.T.);
#253=EDGE_CURVE('',#305,#305,#27,.T.);
#254=EDGE_CURVE('',#306,#306,#28,.F.);
#255=EDGE_CURVE('',#307,#307,#29,.F.);
#256=EDGE_CURVE('',#308,#308,#30,.F.);
#257=EDGE_CURVE('',#309,#309,#31,.F.);
#258=VERTEX_POINT('',#774);
#259=VERTEX_POINT('',#775);
#260=VERTEX_POINT('',#777);
#261=VERTEX_POINT('',#779);
#262=VERTEX_POINT('',#783);
#263=VERTEX_POINT('',#785);
#264=VERTEX_POINT('',#789);
#265=VERTEX_POINT('',#791);
#266=VERTEX_POINT('',#795);
#267=VERTEX_POINT('',#797);
#268=VERTEX_POINT('',#801);
#269=VERTEX_POINT('',#803);
#270=VERTEX_POINT('',#807);
#271=VERTEX_POINT('',#809);
#272=VERTEX_POINT('',#813);
#273=VERTEX_POINT('',#815);
#274=VERTEX_POINT('',#819);
#275=VERTEX_POINT('',#820);
#276=VERTEX_POINT('',#822);
#277=VERTEX_POINT('',#824);
#278=VERTEX_POINT('',#828);
#279=VERTEX_POINT('',#830);
#280=VERTEX_POINT('',#834);
#281=VERTEX_POINT('',#836);
#282=VERTEX_POINT('',#840);
#283=VERTEX_POINT('',#841);
#284=VERTEX_POINT('',#843);
#285=VERTEX_POINT('',#845);
#286=VERTEX_POINT('',#849);
#287=VERTEX_POINT('',#851);
#288=VERTEX_POINT('',#855);
#289=VERTEX_POINT('',#857);
#290=VERTEX_POINT('',#861);
#291=VERTEX_POINT('',#863);
#292=VERTEX_POINT('',#867);
#293=VERTEX_POINT('',#869);
#294=VERTEX_POINT('',#873);
#295=VERTEX_POINT('',#875);
#296=VERTEX_POINT('',#879);
#297=VERTEX_POINT('',#881);
#298=VERTEX_POINT('',#885);
#299=VERTEX_POINT('',#887);
#300=VERTEX_POINT('',#890);
#301=VERTEX_POINT('',#892);
#302=VERTEX_POINT('',#904);
#303=VERTEX_POINT('',#906);
#304=VERTEX_POINT('',#908);
#305=VERTEX_POINT('',#910);
#306=VERTEX_POINT('',#913);
#307=VERTEX_POINT('',#915);
#308=VERTEX_POINT('',#917);
#309=VERTEX_POINT('',#919);
#310=LINE('',#773,#362);
#311=LINE('',#776,#363);
#312=LINE('',#778,#364);
#313=LINE('',#780,#365);
#314=LINE('',#784,#366);
#315=LINE('',#788,#367);
#316=LINE('',#790,#368);
#317=LINE('',#792,#369);
#318=LINE('',#796,#370);
#319=LINE('',#800,#371);
#320=LINE('',#802,#372);
#321=LINE('',#804,#373);
#322=LINE('',#808,#374);
#323=LINE('',#812,#375);
#324=LINE('',#814,#376);
#325=LINE('',#816,#377);
#326=LINE('',#818,#378);
#327=LINE('',#821,#379);
#328=LINE('',#823,#380);
#329=LINE('',#825,#381);
#330=LINE('',#827,#382);
#331=LINE('',#829,#383);
#332=LINE('',#831,#384);
#333=LINE('',#833,#385);
#334=LINE('',#835,#386);
#335=LINE('',#837,#387);
#336=LINE('',#839,#388);
#337=LINE('',#842,#389);
#338=LINE('',#844,#390);
#339=LINE('',#846,#391);
#340=LINE('',#848,#392);
#341=LINE('',#850,#393);
#342=LINE('',#852,#394);
#343=LINE('',#854,#395);
#344=LINE('',#856,#396);
#345=LINE('',#858,#397);
#346=LINE('',#860,#398);
#347=LINE('',#862,#399);
#348=LINE('',#864,#400);
#349=LINE('',#866,#401);
#350=LINE('',#868,#402);
#351=LINE('',#870,#403);
#352=LINE('',#872,#404);
#353=LINE('',#874,#405);
#354=LINE('',#876,#406);
#355=LINE('',#878,#407);
#356=LINE('',#880,#408);
#357=LINE('',#882,#409);
#358=LINE('',#894,#410);
#359=LINE('',#895,#411);
#360=LINE('',#897,#412);
#361=LINE('',#898,#413);
#362=VECTOR('',#625,1.);
#363=VECTOR('',#626,1.);
#364=VECTOR('',#627,1.);
#365=VECTOR('',#628,1.);
#366=VECTOR('',#633,1.);
#367=VECTOR('',#638,1.);
#368=VECTOR('',#639,1.);
#369=VECTOR('',#640,1.);
#370=VECTOR('',#645,1.);
#371=VECTOR('',#650,1.);
#372=VECTOR('',#651,1.);
#373=VECTOR('',#652,1.);
#374=VECTOR('',#657,1.);
#375=VECTOR('',#662,1.);
#376=VECTOR('',#663,1.);
#377=VECTOR('',#664,1.);
#378=VECTOR('',#667,1.);
#379=VECTOR('',#668,1.);
#380=VECTOR('',#669,1.);
#381=VECTOR('',#670,1.);
#382=VECTOR('',#673,1.);
#383=VECTOR('',#674,1.);
#384=VECTOR('',#675,1.);
#385=VECTOR('',#678,1.);
#386=VECTOR('',#679,1.);
#387=VECTOR('',#680,1.);
#388=VECTOR('',#683,1.);
#389=VECTOR('',#684,1.);
#390=VECTOR('',#685,1.);
#391=VECTOR('',#686,1.);
#392=VECTOR('',#689,1.);
#393=VECTOR('',#690,1.);
#394=VECTOR('',#691,1.);
#395=VECTOR('',#694,1.);
#396=VECTOR('',#695,1.);
#397=VECTOR('',#696,1.);
#398=VECTOR('',#699,1.);
#399=VECTOR('',#700,1.);
#400=VECTOR('',#701,1.);
#401=VECTOR('',#704,1.);
#402=VECTOR('',#705,1.);
#403=VECTOR('',#706,1.);
#404=VECTOR('',#709,1.);
#405=VECTOR('',#710,1.);
#406=VECTOR('',#711,1.);
#407=VECTOR('',#714,1.);
#408=VECTOR('',#715,1.);
#409=VECTOR('',#716,1.);
#410=VECTOR('',#731,1.);
#411=VECTOR('',#732,1.);
#412=VECTOR('',#735,1.);
#413=VECTOR('',#736,1.);
#414=EDGE_LOOP('',(#42,#43,#44,#45));
#415=EDGE_LOOP('',(#46,#47,#48,#49));
#416=EDGE_LOOP('',(#50,#51,#52,#53));
#417=EDGE_LOOP('',(#54,#55,#56,#57));
#418=EDGE_LOOP('',(#58,#59,#60,#61));
#419=EDGE_LOOP('',(#62,#63,#64,#65));
#420=EDGE_LOOP('',(#66,#67,#68,#69));
#421=EDGE_LOOP('',(#70,#71,#72,#73));
#422=EDGE_LOOP('',(#74,#75,#76,#77));
#423=EDGE_LOOP('',(#78,#79,#80,#81));
#424=EDGE_LOOP('',(#82,#83,#84,#85));
#425=EDGE_LOOP('',(#86,#87,#88,#89));
#426=EDGE_LOOP('',(#90,#91,#92,#93));
#427=EDGE_LOOP('',(#94,#95,#96,#97));
#428=EDGE_LOOP('',(#98,#99,#100,#101));
#429=EDGE_LOOP('',(#102,#103,#104,#105));
#430=EDGE_LOOP('',(#106,#107,#108,#109));
#431=EDGE_LOOP('',(#110));
#432=EDGE_LOOP('',(#111));
#433=EDGE_LOOP('',(#112));
#434=EDGE_LOOP('',(#113));
#435=EDGE_LOOP('',(#114,#115,#116,#117));
#436=EDGE_LOOP('',(#118,#119,#120,#121));
#437=EDGE_LOOP('',(#122,#123,#124,#125));
#438=EDGE_LOOP('',(#126));
#439=EDGE_LOOP('',(#127));
#440=EDGE_LOOP('',(#128));
#441=EDGE_LOOP('',(#129));
#442=EDGE_LOOP('',(#130,#131,#132,#133,#134,#135,#136,#137));
#443=EDGE_LOOP('',(#138,#139,#140,#141));
#444=EDGE_LOOP('',(#142));
#445=EDGE_LOOP('',(#143));
#446=EDGE_LOOP('',(#144,#145,#146,#147,#148,#149,#150,#151));
#447=EDGE_LOOP('',(#152));
#448=EDGE_LOOP('',(#153));
#449=EDGE_LOOP('',(#154));
#450=EDGE_LOOP('',(#155));
#451=EDGE_LOOP('',(#156,#157,#158,#159,#160,#161,#162,#163));
#452=EDGE_LOOP('',(#164,#165,#166,#167));
#453=EDGE_LOOP('',(#168));
#454=EDGE_LOOP('',(#169));
#455=EDGE_LOOP('',(#170,#171,#172,#173,#174,#175,#176,#177));
#456=EDGE_LOOP('',(#178));
#457=EDGE_LOOP('',(#179));
#458=EDGE_LOOP('',(#180));
#459=EDGE_LOOP('',(#181));
#460=EDGE_LOOP('',(#182));
#461=EDGE_LOOP('',(#183));
#462=EDGE_LOOP('',(#184));
#463=EDGE_LOOP('',(#185));
#464=FACE_BOUND('',#414,.T.);
#465=FACE_BOUND('',#415,.T.);
#466=FACE_BOUND('',#416,.T.);
#467=FACE_BOUND('',#417,.T.);
#468=FACE_BOUND('',#418,.T.);
#469=FACE_BOUND('',#419,.T.);
#470=FACE_BOUND('',#420,.T.);
#471=FACE_BOUND('',#421,.T.);
#472=FACE_BOUND('',#422,.T.);
#473=FACE_BOUND('',#423,.T.);
#474=FACE_BOUND('',#424,.T.);
#475=FACE_BOUND('',#425,.T.);
#476=FACE_BOUND('',#426,.T.);
#477=FACE_BOUND('',#427,.T.);
#478=FACE_BOUND('',#428,.T.);
#479=FACE_BOUND('',#429,.T.);
#480=FACE_BOUND('',#430,.T.);
#481=FACE_BOUND('',#431,.T.);
#482=FACE_BOUND('',#432,.T.);
#483=FACE_BOUND('',#433,.T.);
#484=FACE_BOUND('',#434,.T.);
#485=FACE_BOUND('',#435,.T.);
#486=FACE_BOUND('',#436,.T.);
#487=FACE_BOUND('',#437,.T.);
#488=FACE_BOUND('',#438,.T.);
#489=FACE_BOUND('',#439,.T.);
#490=FACE_BOUND('',#440,.T.);
#491=FACE_BOUND('',#441,.T.);
#492=FACE_BOUND('',#442,.T.);
#493=FACE_BOUND('',#443,.T.);
#494=FACE_BOUND('',#444,.T.);
#495=FACE_BOUND('',#445,.T.);
#496=FACE_BOUND('',#446,.T.);
#497=FACE_BOUND('',#447,.T.);
#498=FACE_BOUND('',#448,.T.);
#499=FACE_BOUND('',#449,.T.);
#500=FACE_BOUND('',#450,.T.);
#501=FACE_BOUND('',#451,.T.);
#502=FACE_BOUND('',#452,.T.);
#503=FACE_BOUND('',#453,.T.);
#504=FACE_BOUND('',#454,.T.);
#505=FACE_BOUND('',#455,.T.);
#506=FACE_BOUND('',#456,.T.);
#507=FACE_BOUND('',#457,.T.);
#508=FACE_BOUND('',#458,.T.);
#509=FACE_BOUND('',#459,.T.);
#510=FACE_BOUND('',#460,.T.);
#511=FACE_BOUND('',#461,.T.);
#512=FACE_BOUND('',#462,.T.);
#513=FACE_BOUND('',#463,.T.);
#514=PLANE('',#573);
#515=PLANE('',#577);
#516=PLANE('',#581);
#517=PLANE('',#585);
#518=PLANE('',#586);
#519=PLANE('',#587);
#520=PLANE('',#588);
#521=PLANE('',#589);
#522=PLANE('',#590);
#523=PLANE('',#591);
#524=PLANE('',#592);
#525=PLANE('',#593);
#526=PLANE('',#594);
#527=PLANE('',#595);
#528=PLANE('',#602);
#529=PLANE('',#603);
#530=PLANE('',#607);
#531=PLANE('',#612);
#532=ADVANCED_FACE('',(#464),#514,.T.);
#533=ADVANCED_FACE('',(#465),#32,.T.);
#534=ADVANCED_FACE('',(#466),#515,.T.);
#535=ADVANCED_FACE('',(#467),#33,.T.);
#536=ADVANCED_FACE('',(#468),#516,.F.);
#537=ADVANCED_FACE('',(#469),#34,.T.);
#538=ADVANCED_FACE('',(#470),#517,.F.);
#539=ADVANCED_FACE('',(#471),#518,.T.);
#540=ADVANCED_FACE('',(#472),#519,.F.);
#541=ADVANCED_FACE('',(#473),#520,.F.);
#542=ADVANCED_FACE('',(#474),#521,.T.);
#543=ADVANCED_FACE('',(#475),#522,.F.);
#544=ADVANCED_FACE('',(#476),#523,.F.);
#545=ADVANCED_FACE('',(#477),#524,.T.);
#546=ADVANCED_FACE('',(#478),#525,.T.);
#547=ADVANCED_FACE('',(#479),#526,.T.);
#548=ADVANCED_FACE('',(#480),#527,.F.);
#549=ADVANCED_FACE('',(#481,#482),#35,.F.);
#550=ADVANCED_FACE('',(#483,#484),#36,.F.);
#551=ADVANCED_FACE('',(#485),#528,.T.);
#552=ADVANCED_FACE('',(#486),#529,.T.);
#553=ADVANCED_FACE('',(#487),#37,.T.);
#554=ADVANCED_FACE('',(#488,#489,#490,#491,#492,#493,#494,#495,#496),#530,
 .T.);
#555=ADVANCED_FACE('',(#497,#498,#499,#500,#501,#502,#503,#504,#505),#531,
 .F.);
#556=ADVANCED_FACE('',(#506,#507),#38,.F.);
#557=ADVANCED_FACE('',(#508,#509),#39,.F.);
#558=ADVANCED_FACE('',(#510,#511),#40,.F.);
#559=ADVANCED_FACE('',(#512,#513),#41,.F.);
#560=CLOSED_SHELL('',(#532,#533,#534,#535,#536,#537,#538,#539,#540,#541,
#542,#543,#544,#545,#546,#547,#548,#549,#550,#551,#552,#553,#554,#555,#556,
#557,#558,#559));
#561=STYLED_ITEM('',(#562),#569);
#562=PRESENTATION_STYLE_ASSIGNMENT((#563));
#563=SURFACE_STYLE_USAGE(.BOTH.,#564);
#564=SURFACE_SIDE_STYLE('',(#565));
#565=SURFACE_STYLE_FILL_AREA(#566);
#566=FILL_AREA_STYLE('',(#567));
#567=FILL_AREA_STYLE_COLOUR('',#568);
#568=COLOUR_RGB('',0.615686274509804,0.811764705882353,0.929411764705882);
#569=MANIFOLD_SOLID_BREP('Part 1',#560);
#570=SHAPE_DEFINITION_REPRESENTATION(#930,#571);
#571=SHAPE_REPRESENTATION('Part 1',(#572),#925);
#572=AXIS2_PLACEMENT_3D('',#771,#621,#622);
#573=AXIS2_PLACEMENT_3D('',#772,#623,#624);
#574=AXIS2_PLACEMENT_3D('',#781,#629,#630);
#575=AXIS2_PLACEMENT_3D('',#782,#631,#632);
#576=AXIS2_PLACEMENT_3D('',#786,#634,#635);
#577=AXIS2_PLACEMENT_3D('',#787,#636,#637);
#578=AXIS2_PLACEMENT_3D('',#793,#641,#642);
#579=AXIS2_PLACEMENT_3D('',#794,#643,#644);
#580=AXIS2_PLACEMENT_3D('',#798,#646,#647);
#581=AXIS2_PLACEMENT_3D('',#799,#648,#649);
#582=AXIS2_PLACEMENT_3D('',#805,#653,#654);
#583=AXIS2_PLACEMENT_3D('',#806,#655,#656);
#584=AXIS2_PLACEMENT_3D('',#810,#658,#659);
#585=AXIS2_PLACEMENT_3D('',#811,#660,#661);
#586=AXIS2_PLACEMENT_3D('',#817,#665,#666);
#587=AXIS2_PLACEMENT_3D('',#826,#671,#672);
#588=AXIS2_PLACEMENT_3D('',#832,#676,#677);
#589=AXIS2_PLACEMENT_3D('',#838,#681,#682);
#590=AXIS2_PLACEMENT_3D('',#847,#687,#688);
#591=AXIS2_PLACEMENT_3D('',#853,#692,#693);
#592=AXIS2_PLACEMENT_3D('',#859,#697,#698);
#593=AXIS2_PLACEMENT_3D('',#865,#702,#703);
#594=AXIS2_PLACEMENT_3D('',#871,#707,#708);
#595=AXIS2_PLACEMENT_3D('',#877,#712,#713);
#596=AXIS2_PLACEMENT_3D('',#883,#717,#718);
#597=AXIS2_PLACEMENT_3D('',#884,#719,#720);
#598=AXIS2_PLACEMENT_3D('',#886,#721,#722);
#599=AXIS2_PLACEMENT_3D('',#888,#723,#724);
#600=AXIS2_PLACEMENT_3D('',#889,#725,#726);
#601=AXIS2_PLACEMENT_3D('',#891,#727,#728);
#602=AXIS2_PLACEMENT_3D('',#893,#729,#730);
#603=AXIS2_PLACEMENT_3D('',#896,#733,#734);
#604=AXIS2_PLACEMENT_3D('',#899,#737,#738);
#605=AXIS2_PLACEMENT_3D('',#900,#739,#740);
#606=AXIS2_PLACEMENT_3D('',#901,#741,#742);
#607=AXIS2_PLACEMENT_3D('',#902,#743,#744);
#608=AXIS2_PLACEMENT_3D('',#903,#745,#746);
#609=AXIS2_PLACEMENT_3D('',#905,#747,#748);
#610=AXIS2_PLACEMENT_3D('',#907,#749,#750);
#611=AXIS2_PLACEMENT_3D('',#909,#751,#752);
#612=AXIS2_PLACEMENT_3D('',#911,#753,#754);
#613=AXIS2_PLACEMENT_3D('',#912,#755,#756);
#614=AXIS2_PLACEMENT_3D('',#914,#757,#758);
#615=AXIS2_PLACEMENT_3D('',#916,#759,#760);
#616=AXIS2_PLACEMENT_3D('',#918,#761,#762);
#617=AXIS2_PLACEMENT_3D('',#920,#763,#764);
#618=AXIS2_PLACEMENT_3D('',#921,#765,#766);
#619=AXIS2_PLACEMENT_3D('',#922,#767,#768);
#620=AXIS2_PLACEMENT_3D('',#923,#769,#770);
#621=DIRECTION('',(0.,0.,1.));
#622=DIRECTION('',(1.,0.,0.));
#623=DIRECTION('',(0.,1.,0.));
#624=DIRECTION('',(0.,0.,1.));
#625=DIRECTION('',(1.,0.,0.));
#626=DIRECTION('',(0.,0.,-1.));
#627=DIRECTION('',(1.,0.,0.));
#628=DIRECTION('',(0.,0.,-1.));
#629=DIRECTION('',(0.,0.,-1.));
#630=DIRECTION('',(-1.,0.,0.));
#631=DIRECTION('',(0.,0.,1.));
#632=DIRECTION('',(1.,0.,0.));
#633=DIRECTION('',(0.,0.,-1.));
#634=DIRECTION('',(0.,0.,1.));
#635=DIRECTION('',(1.,0.,0.));
#636=DIRECTION('',(-1.,-1.85037170770859E-16,0.));
#637=DIRECTION('',(1.85037170770859E-16,-1.,0.));
#638=DIRECTION('',(-1.85037170770859E-16,1.,0.));
#639=DIRECTION('',(0.,0.,-1.));
#640=DIRECTION('',(-1.85037170770859E-16,1.,0.));
#641=DIRECTION('',(0.,0.,-1.));
#642=DIRECTION('',(-1.,0.,0.));
#643=DIRECTION('',(0.,0.,1.));
#644=DIRECTION('',(1.,0.,0.));
#645=DIRECTION('',(0.,0.,-1.));
#646=DIRECTION('',(0.,0.,1.));
#647=DIRECTION('',(1.,0.,0.));
#648=DIRECTION('',(0.,1.,0.));
#649=DIRECTION('',(0.,0.,1.));
#650=DIRECTION('',(1.,0.,0.));
#651=DIRECTION('',(0.,0.,-1.));
#652=DIRECTION('',(1.,0.,0.));
#653=DIRECTION('',(0.,0.,-1.));
#654=DIRECTION('',(-1.,0.,0.));
#655=DIRECTION('',(0.,0.,1.));
#656=DIRECTION('',(1.,0.,0.));
#657=DIRECTION('',(0.,0.,-1.));
#658=DIRECTION('',(0.,0.,1.));
#659=DIRECTION('',(1.,0.,0.));
#660=DIRECTION('',(-1.,-1.85037170770859E-16,0.));
#661=DIRECTION('',(1.85037170770859E-16,-1.,0.));
#662=DIRECTION('',(-1.85037170770859E-16,1.,0.));
#663=DIRECTION('',(0.,0.,-1.));
#664=DIRECTION('',(-1.85037170770859E-16,1.,0.));
#665=DIRECTION('',(0.,-1.,0.));
#666=DIRECTION('',(0.,0.,-1.));
#667=DIRECTION('',(-1.,0.,0.));
#668=DIRECTION('',(0.,0.,-1.));
#669=DIRECTION('',(-1.,0.,0.));
#670=DIRECTION('',(0.,0.,-1.));
#671=DIRECTION('',(1.,0.,0.));
#672=DIRECTION('',(0.,0.,-1.));
#673=DIRECTION('',(0.,-1.,0.));
#674=DIRECTION('',(0.,0.,-1.));
#675=DIRECTION('',(0.,-1.,0.));
#676=DIRECTION('',(0.,-1.,0.));
#677=DIRECTION('',(0.,0.,-1.));
#678=DIRECTION('',(-1.,0.,0.));
#679=DIRECTION('',(0.,0.,-1.));
#680=DIRECTION('',(-1.,0.,0.));
#681=DIRECTION('',(1.,0.,0.));
#682=DIRECTION('',(0.,0.,-1.));
#683=DIRECTION('',(0.,-1.,0.));
#684=DIRECTION('',(0.,0.,-1.));
#685=DIRECTION('',(0.,-1.,0.));
#686=DIRECTION('',(0.,0.,-1.));
#687=DIRECTION('',(0.,1.,0.));
#688=DIRECTION('',(0.,0.,1.));
#689=DIRECTION('',(1.,0.,0.));
#690=DIRECTION('',(0.,0.,-1.));
#691=DIRECTION('',(1.,0.,0.));
#692=DIRECTION('',(1.,0.,0.));
#693=DIRECTION('',(0.,0.,-1.));
#694=DIRECTION('',(0.,-1.,0.));
#695=DIRECTION('',(0.,0.,-1.));
#696=DIRECTION('',(0.,-1.,0.));
#697=DIRECTION('',(0.,1.,0.));
#698=DIRECTION('',(0.,0.,1.));
#699=DIRECTION('',(1.,0.,0.));
#700=DIRECTION('',(0.,0.,-1.));
#701=DIRECTION('',(1.,0.,0.));
#702=DIRECTION('',(-1.,0.,0.));
#703=DIRECTION('',(0.,0.,1.));
#704=DIRECTION('',(0.,1.,0.));
#705=DIRECTION('',(0.,0.,-1.));
#706=DIRECTION('',(0.,1.,0.));
#707=DIRECTION('',(0.,1.,0.));
#708=DIRECTION('',(0.,0.,1.));
#709=DIRECTION('',(1.,0.,0.));
#710=DIRECTION('',(0.,0.,-1.));
#711=DIRECTION('',(1.,0.,0.));
#712=DIRECTION('',(-1.,0.,0.));
#713=DIRECTION('',(0.,0.,1.));
#714=DIRECTION('',(0.,1.,0.));
#715=DIRECTION('',(0.,0.,-1.));
#716=DIRECTION('',(0.,1.,0.));
#717=DIRECTION('',(0.,0.,-1.));
#718=DIRECTION('',(-1.,0.,0.));
#719=DIRECTION('',(0.,0.,1.));
#720=DIRECTION('',(1.,0.,0.));
#721=DIRECTION('',(0.,0.,1.));
#722=DIRECTION('',(1.,0.,0.));
#723=DIRECTION('',(0.,0.,-1.));
#724=DIRECTION('',(-1.,0.,0.));
#725=DIRECTION('',(0.,0.,1.));
#726=DIRECTION('',(1.,0.,0.));
#727=DIRECTION('',(0.,0.,1.));
#728=DIRECTION('',(1.,0.,0.));
#729=DIRECTION('',(1.,0.,0.));
#730=DIRECTION('',(0.,0.,-1.));
#731=DIRECTION('',(0.,-1.,0.));
#732=DIRECTION('',(0.,-1.,0.));
#733=DIRECTION('',(0.,1.,0.));
#734=DIRECTION('',(0.,0.,1.));
#735=DIRECTION('',(1.,0.,0.));
#736=DIRECTION('',(1.,0.,0.));
#737=DIRECTION('',(0.,0.,-1.));
#738=DIRECTION('',(-1.,0.,0.));
#739=DIRECTION('',(0.,0.,1.));
#740=DIRECTION('',(1.,0.,0.));
#741=DIRECTION('',(0.,0.,1.));
#742=DIRECTION('',(1.,0.,0.));
#743=DIRECTION('',(0.,0.,1.));
#744=DIRECTION('',(1.,0.,0.));
#745=DIRECTION('',(0.,0.,1.));
#746=DIRECTION('',(1.,0.,0.));
#747=DIRECTION('',(0.,0.,1.));
#748=DIRECTION('',(1.,0.,0.));
#749=DIRECTION('',(0.,0.,1.));
#750=DIRECTION('',(1.,0.,0.));
#751=DIRECTION('',(0.,0.,1.));
#752=DIRECTION('',(1.,0.,0.));
#753=DIRECTION('',(0.,0.,1.));
#754=DIRECTION('',(1.,0.,0.));
#755=DIRECTION('',(0.,0.,1.));
#756=DIRECTION('',(1.,0.,0.));
#757=DIRECTION('',(0.,0.,1.));
#758=DIRECTION('',(1.,0.,0.));
#759=DIRECTION('',(0.,0.,1.));
#760=DIRECTION('',(1.,0.,0.));
#761=DIRECTION('',(0.,0.,1.));
#762=DIRECTION('',(1.,0.,0.));
#763=DIRECTION('',(0.,0.,1.));
#764=DIRECTION('',(1.,0.,0.));
#765=DIRECTION('',(0.,0.,1.));
#766=DIRECTION('',(1.,0.,0.));
#767=DIRECTION('',(0.,0.,1.));
#768=DIRECTION('',(1.,0.,0.));
#769=DIRECTION('',(0.,0.,1.));
#770=DIRECTION('',(1.,0.,0.));
#771=CARTESIAN_POINT('',(0.,0.,0.));
#772=CARTESIAN_POINT('',(0.046,0.088,0.005));
#773=CARTESIAN_POINT('',(0.046,0.088,0.));
#774=CARTESIAN_POINT('',(0.005,0.088,0.));
#775=CARTESIAN_POINT('',(0.087,0.088,0.));
#776=CARTESIAN_POINT('',(0.005,0.088,0.005));
#777=CARTESIAN_POINT('',(0.005,0.088,0.005));
#778=CARTESIAN_POINT('',(0.046,0.088,0.005));
#779=CARTESIAN_POINT('',(0.087,0.088,0.005));
#780=CARTESIAN_POINT('',(0.087,0.088,0.005));
#781=CARTESIAN_POINT('',(0.005,0.08,0.005));
#782=CARTESIAN_POINT('',(0.005,0.08,0.));
#783=CARTESIAN_POINT('',(-0.003,0.08,0.));
#784=CARTESIAN_POINT('',(-0.003,0.08,0.005));
#785=CARTESIAN_POINT('',(-0.003,0.08,0.005));
#786=CARTESIAN_POINT('',(0.005,0.08,0.005));
#787=CARTESIAN_POINT('',(-0.003,0.0425,0.005));
#788=CARTESIAN_POINT('',(-0.003,0.0425,0.));
#789=CARTESIAN_POINT('',(-0.003,0.005,0.));
#790=CARTESIAN_POINT('',(-0.003,0.005,0.005));
#791=CARTESIAN_POINT('',(-0.003,0.005,0.005));
#792=CARTESIAN_POINT('',(-0.003,0.0425,0.005));
#793=CARTESIAN_POINT('',(0.005,0.005,0.005));
#794=CARTESIAN_POINT('',(0.005,0.005,0.));
#795=CARTESIAN_POINT('',(0.005,-0.003,0.));
#796=CARTESIAN_POINT('',(0.005,-0.003,0.005));
#797=CARTESIAN_POINT('',(0.005,-0.003,0.005));
#798=CARTESIAN_POINT('',(0.005,0.005,0.005));
#799=CARTESIAN_POINT('',(0.046,-0.003,0.005));
#800=CARTESIAN_POINT('',(0.046,-0.003,0.));
#801=CARTESIAN_POINT('',(0.087,-0.003,0.));
#802=CARTESIAN_POINT('',(0.087,-0.003,0.005));
#803=CARTESIAN_POINT('',(0.087,-0.003,0.005));
#804=CARTESIAN_POINT('',(0.046,-0.003,0.005));
#805=CARTESIAN_POINT('',(0.087,0.005,0.005));
#806=CARTESIAN_POINT('',(0.087,0.005,0.));
#807=CARTESIAN_POINT('',(0.095,0.005,0.));
#808=CARTESIAN_POINT('',(0.095,0.005,0.005));
#809=CARTESIAN_POINT('',(0.095,0.005,0.005));
#810=CARTESIAN_POINT('',(0.087,0.005,0.005));
#811=CARTESIAN_POINT('',(0.095,0.0425,0.005));
#812=CARTESIAN_POINT('',(0.095,0.0425,0.));
#813=CARTESIAN_POINT('',(0.095,0.08,0.));
#814=CARTESIAN_POINT('',(0.095,0.08,0.005));
#815=CARTESIAN_POINT('',(0.095,0.08,0.005));
#816=CARTESIAN_POINT('',(0.095,0.0425,0.005));
#817=CARTESIAN_POINT('',(0.058,0.078,0.005));
#818=CARTESIAN_POINT('',(0.058,0.078,0.));
#819=CARTESIAN_POINT('',(0.079,0.078,0.));
#820=CARTESIAN_POINT('',(0.041,0.078,0.));
#821=CARTESIAN_POINT('',(0.079,0.078,0.005));
#822=CARTESIAN_POINT('',(0.079,0.078,0.005));
#823=CARTESIAN_POINT('',(0.058,0.078,0.005));
#824=CARTESIAN_POINT('',(0.041,0.078,0.005));
#825=CARTESIAN_POINT('',(0.041,0.078,0.005));
#826=CARTESIAN_POINT('',(0.079,0.072,0.005));
#827=CARTESIAN_POINT('',(0.079,0.072,0.));
#828=CARTESIAN_POINT('',(0.079,0.066,0.));
#829=CARTESIAN_POINT('',(0.079,0.066,0.005));
#830=CARTESIAN_POINT('',(0.079,0.066,0.005));
#831=CARTESIAN_POINT('',(0.079,0.072,0.005));
#832=CARTESIAN_POINT('',(0.058,0.066,0.005));
#833=CARTESIAN_POINT('',(0.058,0.066,0.));
#834=CARTESIAN_POINT('',(0.041,0.066,0.));
#835=CARTESIAN_POINT('',(0.041,0.066,0.005));
#836=CARTESIAN_POINT('',(0.041,0.066,0.005));
#837=CARTESIAN_POINT('',(0.058,0.066,0.005));
#838=CARTESIAN_POINT('',(0.017,0.044,0.005));
#839=CARTESIAN_POINT('',(0.017,0.044,0.));
#840=CARTESIAN_POINT('',(0.017,0.054,0.));
#841=CARTESIAN_POINT('',(0.017,0.034,0.));
#842=CARTESIAN_POINT('',(0.017,0.054,0.005));
#843=CARTESIAN_POINT('',(0.017,0.054,0.005));
#844=CARTESIAN_POINT('',(0.017,0.044,0.005));
#845=CARTESIAN_POINT('',(0.017,0.034,0.005));
#846=CARTESIAN_POINT('',(0.017,0.034,0.005));
#847=CARTESIAN_POINT('',(0.046,0.054,0.005));
#848=CARTESIAN_POINT('',(0.046,0.054,0.));
#849=CARTESIAN_POINT('',(0.075,0.054,0.));
#850=CARTESIAN_POINT('',(0.075,0.054,0.005));
#851=CARTESIAN_POINT('',(0.075,0.054,0.005));
#852=CARTESIAN_POINT('',(0.046,0.054,0.005));
#853=CARTESIAN_POINT('',(0.075,0.044,0.005));
#854=CARTESIAN_POINT('',(0.075,0.044,0.));
#855=CARTESIAN_POINT('',(0.075,0.034,0.));
#856=CARTESIAN_POINT('',(0.075,0.034,0.005));
#857=CARTESIAN_POINT('',(0.075,0.034,0.005));
#858=CARTESIAN_POINT('',(0.075,0.044,0.005));
#859=CARTESIAN_POINT('',(0.0705,0.034,0.005));
#860=CARTESIAN_POINT('',(0.0705,0.034,0.));
#861=CARTESIAN_POINT('',(0.066,0.034,0.));
#862=CARTESIAN_POINT('',(0.066,0.034,0.005));
#863=CARTESIAN_POINT('',(0.066,0.034,0.005));
#864=CARTESIAN_POINT('',(0.0705,0.034,0.005));
#865=CARTESIAN_POINT('',(0.066,0.024,0.005));
#866=CARTESIAN_POINT('',(0.066,0.024,0.));
#867=CARTESIAN_POINT('',(0.066,0.014,0.));
#868=CARTESIAN_POINT('',(0.066,0.014,0.005));
#869=CARTESIAN_POINT('',(0.066,0.014,0.005));
#870=CARTESIAN_POINT('',(0.066,0.024,0.005));
#871=CARTESIAN_POINT('',(0.046,0.014,0.005));
#872=CARTESIAN_POINT('',(0.046,0.014,0.));
#873=CARTESIAN_POINT('',(0.026,0.014,0.));
#874=CARTESIAN_POINT('',(0.026,0.014,0.005));
#875=CARTESIAN_POINT('',(0.026,0.014,0.005));
#876=CARTESIAN_POINT('',(0.046,0.014,0.005));
#877=CARTESIAN_POINT('',(0.026,0.024,0.005));
#878=CARTESIAN_POINT('',(0.026,0.024,0.));
#879=CARTESIAN_POINT('',(0.026,0.034,0.));
#880=CARTESIAN_POINT('',(0.026,0.034,0.005));
#881=CARTESIAN_POINT('',(0.026,0.034,0.005));
#882=CARTESIAN_POINT('',(0.026,0.024,0.005));
#883=CARTESIAN_POINT('',(0.017,0.024,0.005));
#884=CARTESIAN_POINT('',(0.017,0.024,0.005));
#885=CARTESIAN_POINT('',(0.0245,0.024,0.005));
#886=CARTESIAN_POINT('',(0.017,0.024,0.));
#887=CARTESIAN_POINT('',(0.0245,0.024,0.));
#888=CARTESIAN_POINT('',(0.075,0.024,0.005));
#889=CARTESIAN_POINT('',(0.075,0.024,0.005));
#890=CARTESIAN_POINT('',(0.0825,0.024,0.005));
#891=CARTESIAN_POINT('',(0.075,0.024,0.));
#892=CARTESIAN_POINT('',(0.0825,0.024,0.));
#893=CARTESIAN_POINT('',(0.041,0.072,0.005));
#894=CARTESIAN_POINT('',(0.041,0.072,0.));
#895=CARTESIAN_POINT('',(0.041,0.072,0.005));
#896=CARTESIAN_POINT('',(0.0215,0.034,0.005));
#897=CARTESIAN_POINT('',(0.0215,0.034,0.));
#898=CARTESIAN_POINT('',(0.0215,0.034,0.005));
#899=CARTESIAN_POINT('',(0.087,0.08,0.005));
#900=CARTESIAN_POINT('',(0.087,0.08,0.));
#901=CARTESIAN_POINT('',(0.087,0.08,0.005));
#902=CARTESIAN_POINT('',(0.046,0.0425,0.005));
#903=CARTESIAN_POINT('',(0.00217157287525381,0.00217157287525381,0.005));
#904=CARTESIAN_POINT('',(0.00387157287525381,0.00217157287525381,0.005));
#905=CARTESIAN_POINT('',(0.00217157287525384,0.0828284271247462,0.005));
#906=CARTESIAN_POINT('',(0.00387157287525383,0.0828284271247462,0.005));
#907=CARTESIAN_POINT('',(0.0898284271247462,0.0828284271247462,0.005));
#908=CARTESIAN_POINT('',(0.0915284271247462,0.0828284271247462,0.005));
#909=CARTESIAN_POINT('',(0.0898284271247462,0.00217157287525378,0.005));
#910=CARTESIAN_POINT('',(0.0915284271247462,0.00217157287525378,0.005));
#911=CARTESIAN_POINT('',(0.046,0.0425,0.));
#912=CARTESIAN_POINT('',(0.00217157287525381,0.00217157287525381,0.));
#913=CARTESIAN_POINT('',(0.00387157287525381,0.00217157287525381,0.));
#914=CARTESIAN_POINT('',(0.00217157287525384,0.0828284271247462,0.));
#915=CARTESIAN_POINT('',(0.00387157287525383,0.0828284271247462,0.));
#916=CARTESIAN_POINT('',(0.0898284271247462,0.0828284271247462,0.));
#917=CARTESIAN_POINT('',(0.0915284271247462,0.0828284271247462,0.));
#918=CARTESIAN_POINT('',(0.0898284271247462,0.00217157287525378,0.));
#919=CARTESIAN_POINT('',(0.0915284271247462,0.00217157287525378,0.));
#920=CARTESIAN_POINT('',(0.0898284271247462,0.00217157287525378,-2.00000000000027E-6));
#921=CARTESIAN_POINT('',(0.0898284271247462,0.0828284271247462,-2.00000000000027E-6));
#922=CARTESIAN_POINT('',(0.00217157287525384,0.0828284271247462,-2.00000000000027E-6));
#923=CARTESIAN_POINT('',(0.00217157287525381,0.00217157287525381,-2.00000000000027E-6));
#924=MECHANICAL_DESIGN_GEOMETRIC_PRESENTATION_REPRESENTATION('',(#561),
#925);
#925=(
GEOMETRIC_REPRESENTATION_CONTEXT(3)
GLOBAL_UNCERTAINTY_ASSIGNED_CONTEXT((#926))
GLOBAL_UNIT_ASSIGNED_CONTEXT((#929,#928,#927))
REPRESENTATION_CONTEXT('Part 1','TOP_LEVEL_ASSEMBLY_PART')
);
#926=UNCERTAINTY_MEASURE_WITH_UNIT(LENGTH_MEASURE(1.E-8),#929,
'DISTANCE_ACCURACY_VALUE','Maximum Tolerance applied to model');
#927=(
NAMED_UNIT(*)
SI_UNIT($,.STERADIAN.)
SOLID_ANGLE_UNIT()
);
#928=(
NAMED_UNIT(*)
PLANE_ANGLE_UNIT()
SI_UNIT($,.RADIAN.)
);
#929=(
LENGTH_UNIT()
NAMED_UNIT(*)
SI_UNIT($,.METRE.)
);
#930=PRODUCT_DEFINITION_SHAPE('','',#931);
#931=PRODUCT_DEFINITION('','',#933,#932);
#932=PRODUCT_DEFINITION_CONTEXT('',#939,'design');
#933=PRODUCT_DEFINITION_FORMATION_WITH_SPECIFIED_SOURCE('','',#935,
 .NOT_KNOWN.);
#934=PRODUCT_RELATED_PRODUCT_CATEGORY('','',(#935));
#935=PRODUCT('Part 1','Part 1','Part 1',(#937));
#936=PRODUCT_CATEGORY('','');
#937=PRODUCT_CONTEXT('',#939,'mechanical');
#938=APPLICATION_PROTOCOL_DEFINITION('international standard',
'ap242_managed_model_based_3d_engineering',2020,#939);
#939=APPLICATION_CONTEXT('managed model based 3d engineering');
ENDSEC;
END-ISO-10303-21;
