ISO-10303-21;
HEADER;
/* Generated by software containing ST-Developer
 * from STEP Tools, Inc. (www.steptools.com) 
 */
/* OPTION: using custom renumber hook */

FILE_DESCRIPTION(
/* description */ ('STEP AP242 Edition 2',
'CAx-IF Rec.Pracs.---Representation and Presentation of Product Manufa
cturing Information (PMI)---4.0---2014-10-13',
'CAx-IF Rec.Pracs.---3D Tessellated Geometry---0.4---2014-09-14','2;1',
'CAx-IF Rec.Pracs.---User Defined Attributes---1.5---2016-08-15'),
/* implementation_level */ '2;1');

FILE_NAME(
/* name */ '6948163d492a9ffd1b6a3310',
/* time_stamp */ '2025-12-21T15:46:06Z',
/* author */ (''),
/* organization */ (''),
/* preprocessor_version */ 'ST-DEVELOPER v20',
/* originating_system */ 'ONSHAPE BY PTC INC, 1.208',
/* authorisation */ '  ');

FILE_SCHEMA (('AP242_MANAGED_MODEL_BASED_3D_ENGINEERING_MIM_LF { 1 0 10303 442 3 1 4 }'));
ENDSEC;

DATA;
#10=SHAPE_REPRESENTATION_RELATIONSHIP('','',#797,#11);
#11=ADVANCED_BREP_SHAPE_REPRESENTATION('',(#795),#1311);
#12=CYLINDRICAL_SURFACE('',#820,0.00235);
#13=CYLINDRICAL_SURFACE('',#822,0.00235);
#14=CYLINDRICAL_SURFACE('',#824,0.00235);
#15=CYLINDRICAL_SURFACE('',#826,0.00235);
#16=CYLINDRICAL_SURFACE('',#846,0.008);
#17=CYLINDRICAL_SURFACE('',#848,0.008);
#18=CYLINDRICAL_SURFACE('',#850,0.008);
#19=CYLINDRICAL_SURFACE('',#852,0.008);
#20=CYLINDRICAL_SURFACE('',#854,0.00235);
#21=CYLINDRICAL_SURFACE('',#857,0.00235);
#22=CYLINDRICAL_SURFACE('',#860,0.00235);
#23=CYLINDRICAL_SURFACE('',#863,0.00235);
#24=LINE('',#1094,#100);
#25=LINE('',#1097,#101);
#26=LINE('',#1099,#102);
#27=LINE('',#1101,#103);
#28=LINE('',#1103,#104);
#29=LINE('',#1106,#105);
#30=LINE('',#1108,#106);
#31=LINE('',#1110,#107);
#32=LINE('',#1116,#108);
#33=LINE('',#1119,#109);
#34=LINE('',#1121,#110);
#35=LINE('',#1123,#111);
#36=LINE('',#1125,#112);
#37=LINE('',#1127,#113);
#38=LINE('',#1129,#114);
#39=LINE('',#1131,#115);
#40=LINE('',#1132,#116);
#41=LINE('',#1134,#117);
#42=LINE('',#1136,#118);
#43=LINE('',#1139,#119);
#44=LINE('',#1141,#120);
#45=LINE('',#1143,#121);
#46=LINE('',#1144,#122);
#47=LINE('',#1146,#123);
#48=LINE('',#1148,#124);
#49=LINE('',#1150,#125);
#50=LINE('',#1152,#126);
#51=LINE('',#1153,#127);
#52=LINE('',#1155,#128);
#53=LINE('',#1157,#129);
#54=LINE('',#1159,#130);
#55=LINE('',#1162,#131);
#56=LINE('',#1164,#132);
#57=LINE('',#1166,#133);
#58=LINE('',#1167,#134);
#59=LINE('',#1169,#135);
#60=LINE('',#1170,#136);
#61=LINE('',#1172,#137);
#62=LINE('',#1174,#138);
#63=LINE('',#1176,#139);
#64=LINE('',#1177,#140);
#65=LINE('',#1179,#141);
#66=LINE('',#1180,#142);
#67=LINE('',#1182,#143);
#68=LINE('',#1183,#144);
#69=LINE('',#1185,#145);
#70=LINE('',#1187,#146);
#71=LINE('',#1190,#147);
#72=LINE('',#1193,#148);
#73=LINE('',#1195,#149);
#74=LINE('',#1197,#150);
#75=LINE('',#1199,#151);
#76=LINE('',#1229,#152);
#77=LINE('',#1234,#153);
#78=LINE('',#1238,#154);
#79=LINE('',#1242,#155);
#80=LINE('',#1246,#156);
#81=LINE('',#1251,#157);
#82=LINE('',#1255,#158);
#83=LINE('',#1259,#159);
#84=LINE('',#1263,#160);
#85=LINE('',#1264,#161);
#86=LINE('',#1266,#162);
#87=LINE('',#1268,#163);
#88=LINE('',#1270,#164);
#89=LINE('',#1272,#165);
#90=LINE('',#1274,#166);
#91=LINE('',#1276,#167);
#92=LINE('',#1278,#168);
#93=LINE('',#1281,#169);
#94=LINE('',#1283,#170);
#95=LINE('',#1285,#171);
#96=LINE('',#1303,#172);
#97=LINE('',#1304,#173);
#98=LINE('',#1306,#174);
#99=LINE('',#1308,#175);
#100=VECTOR('',#876,1.);
#101=VECTOR('',#877,1.);
#102=VECTOR('',#878,1.);
#103=VECTOR('',#879,1.);
#104=VECTOR('',#882,1.);
#105=VECTOR('',#883,1.);
#106=VECTOR('',#884,1.);
#107=VECTOR('',#885,1.);
#108=VECTOR('',#892,1.);
#109=VECTOR('',#893,1.);
#110=VECTOR('',#894,1.);
#111=VECTOR('',#895,1.);
#112=VECTOR('',#898,1.);
#113=VECTOR('',#899,1.);
#114=VECTOR('',#900,1.);
#115=VECTOR('',#901,1.);
#116=VECTOR('',#902,1.);
#117=VECTOR('',#903,1.);
#118=VECTOR('',#906,1.);
#119=VECTOR('',#907,1.);
#120=VECTOR('',#908,1.);
#121=VECTOR('',#909,1.);
#122=VECTOR('',#910,1.);
#123=VECTOR('',#911,1.);
#124=VECTOR('',#914,1.);
#125=VECTOR('',#915,1.);
#126=VECTOR('',#916,1.);
#127=VECTOR('',#917,1.);
#128=VECTOR('',#918,1.);
#129=VECTOR('',#919,1.);
#130=VECTOR('',#922,1.);
#131=VECTOR('',#923,1.);
#132=VECTOR('',#924,1.);
#133=VECTOR('',#925,1.);
#134=VECTOR('',#926,1.);
#135=VECTOR('',#927,1.);
#136=VECTOR('',#928,1.);
#137=VECTOR('',#929,1.);
#138=VECTOR('',#932,1.);
#139=VECTOR('',#933,1.);
#140=VECTOR('',#934,1.);
#141=VECTOR('',#935,1.);
#142=VECTOR('',#936,1.);
#143=VECTOR('',#937,1.);
#144=VECTOR('',#938,1.);
#145=VECTOR('',#939,1.);
#146=VECTOR('',#942,1.);
#147=VECTOR('',#947,1.);
#148=VECTOR('',#952,1.);
#149=VECTOR('',#953,1.);
#150=VECTOR('',#956,1.);
#151=VECTOR('',#959,1.);
#152=VECTOR('',#1000,1.);
#153=VECTOR('',#1003,1.);
#154=VECTOR('',#1006,1.);
#155=VECTOR('',#1009,1.);
#156=VECTOR('',#1014,1.);
#157=VECTOR('',#1017,1.);
#158=VECTOR('',#1020,1.);
#159=VECTOR('',#1023,1.);
#160=VECTOR('',#1028,1.);
#161=VECTOR('',#1029,1.);
#162=VECTOR('',#1032,1.);
#163=VECTOR('',#1035,1.);
#164=VECTOR('',#1038,1.);
#165=VECTOR('',#1041,1.);
#166=VECTOR('',#1044,1.);
#167=VECTOR('',#1047,1.);
#168=VECTOR('',#1050,1.);
#169=VECTOR('',#1051,1.);
#170=VECTOR('',#1052,1.);
#171=VECTOR('',#1053,1.);
#172=VECTOR('',#1080,1.);
#173=VECTOR('',#1081,1.);
#174=VECTOR('',#1084,1.);
#175=VECTOR('',#1087,1.);
#176=ORIENTED_EDGE('',*,*,#376,.F.);
#177=ORIENTED_EDGE('',*,*,#377,.F.);
#178=ORIENTED_EDGE('',*,*,#378,.T.);
#179=ORIENTED_EDGE('',*,*,#379,.F.);
#180=ORIENTED_EDGE('',*,*,#380,.T.);
#181=ORIENTED_EDGE('',*,*,#381,.F.);
#182=ORIENTED_EDGE('',*,*,#382,.F.);
#183=ORIENTED_EDGE('',*,*,#383,.T.);
#184=ORIENTED_EDGE('',*,*,#384,.F.);
#185=ORIENTED_EDGE('',*,*,#385,.F.);
#186=ORIENTED_EDGE('',*,*,#386,.F.);
#187=ORIENTED_EDGE('',*,*,#387,.T.);
#188=ORIENTED_EDGE('',*,*,#388,.T.);
#189=ORIENTED_EDGE('',*,*,#389,.T.);
#190=ORIENTED_EDGE('',*,*,#390,.F.);
#191=ORIENTED_EDGE('',*,*,#391,.F.);
#192=ORIENTED_EDGE('',*,*,#388,.F.);
#193=ORIENTED_EDGE('',*,*,#392,.F.);
#194=ORIENTED_EDGE('',*,*,#393,.T.);
#195=ORIENTED_EDGE('',*,*,#394,.T.);
#196=ORIENTED_EDGE('',*,*,#378,.F.);
#197=ORIENTED_EDGE('',*,*,#395,.T.);
#198=ORIENTED_EDGE('',*,*,#396,.F.);
#199=ORIENTED_EDGE('',*,*,#397,.F.);
#200=ORIENTED_EDGE('',*,*,#398,.F.);
#201=ORIENTED_EDGE('',*,*,#399,.F.);
#202=ORIENTED_EDGE('',*,*,#400,.T.);
#203=ORIENTED_EDGE('',*,*,#392,.T.);
#204=ORIENTED_EDGE('',*,*,#387,.F.);
#205=ORIENTED_EDGE('',*,*,#401,.T.);
#206=ORIENTED_EDGE('',*,*,#402,.F.);
#207=ORIENTED_EDGE('',*,*,#403,.F.);
#208=ORIENTED_EDGE('',*,*,#382,.T.);
#209=ORIENTED_EDGE('',*,*,#404,.F.);
#210=ORIENTED_EDGE('',*,*,#405,.F.);
#211=ORIENTED_EDGE('',*,*,#399,.T.);
#212=ORIENTED_EDGE('',*,*,#406,.T.);
#213=ORIENTED_EDGE('',*,*,#407,.T.);
#214=ORIENTED_EDGE('',*,*,#408,.T.);
#215=ORIENTED_EDGE('',*,*,#409,.T.);
#216=ORIENTED_EDGE('',*,*,#410,.F.);
#217=ORIENTED_EDGE('',*,*,#411,.F.);
#218=ORIENTED_EDGE('',*,*,#412,.T.);
#219=ORIENTED_EDGE('',*,*,#413,.F.);
#220=ORIENTED_EDGE('',*,*,#379,.T.);
#221=ORIENTED_EDGE('',*,*,#394,.F.);
#222=ORIENTED_EDGE('',*,*,#414,.F.);
#223=ORIENTED_EDGE('',*,*,#404,.T.);
#224=ORIENTED_EDGE('',*,*,#381,.T.);
#225=ORIENTED_EDGE('',*,*,#415,.T.);
#226=ORIENTED_EDGE('',*,*,#416,.T.);
#227=ORIENTED_EDGE('',*,*,#396,.T.);
#228=ORIENTED_EDGE('',*,*,#417,.T.);
#229=ORIENTED_EDGE('',*,*,#418,.F.);
#230=ORIENTED_EDGE('',*,*,#416,.F.);
#231=ORIENTED_EDGE('',*,*,#419,.T.);
#232=ORIENTED_EDGE('',*,*,#420,.F.);
#233=ORIENTED_EDGE('',*,*,#408,.F.);
#234=ORIENTED_EDGE('',*,*,#421,.T.);
#235=ORIENTED_EDGE('',*,*,#422,.F.);
#236=ORIENTED_EDGE('',*,*,#402,.T.);
#237=ORIENTED_EDGE('',*,*,#423,.T.);
#238=ORIENTED_EDGE('',*,*,#424,.F.);
#239=ORIENTED_EDGE('',*,*,#420,.T.);
#240=ORIENTED_EDGE('',*,*,#425,.F.);
#241=ORIENTED_EDGE('',*,*,#383,.F.);
#242=ORIENTED_EDGE('',*,*,#403,.T.);
#243=ORIENTED_EDGE('',*,*,#419,.F.);
#244=ORIENTED_EDGE('',*,*,#415,.F.);
#245=ORIENTED_EDGE('',*,*,#384,.T.);
#246=ORIENTED_EDGE('',*,*,#425,.T.);
#247=ORIENTED_EDGE('',*,*,#424,.T.);
#248=ORIENTED_EDGE('',*,*,#426,.F.);
#249=ORIENTED_EDGE('',*,*,#389,.F.);
#250=ORIENTED_EDGE('',*,*,#391,.T.);
#251=ORIENTED_EDGE('',*,*,#423,.F.);
#252=ORIENTED_EDGE('',*,*,#401,.F.);
#253=ORIENTED_EDGE('',*,*,#390,.T.);
#254=ORIENTED_EDGE('',*,*,#426,.T.);
#255=ORIENTED_EDGE('',*,*,#422,.T.);
#256=ORIENTED_EDGE('',*,*,#427,.F.);
#257=ORIENTED_EDGE('',*,*,#428,.F.);
#258=ORIENTED_EDGE('',*,*,#397,.T.);
#259=ORIENTED_EDGE('',*,*,#421,.F.);
#260=ORIENTED_EDGE('',*,*,#407,.F.);
#261=ORIENTED_EDGE('',*,*,#429,.T.);
#262=ORIENTED_EDGE('',*,*,#427,.T.);
#263=ORIENTED_EDGE('',*,*,#417,.F.);
#264=ORIENTED_EDGE('',*,*,#395,.F.);
#265=ORIENTED_EDGE('',*,*,#377,.T.);
#266=ORIENTED_EDGE('',*,*,#430,.T.);
#267=ORIENTED_EDGE('',*,*,#418,.T.);
#268=ORIENTED_EDGE('',*,*,#430,.F.);
#269=ORIENTED_EDGE('',*,*,#380,.F.);
#270=ORIENTED_EDGE('',*,*,#413,.T.);
#271=ORIENTED_EDGE('',*,*,#406,.F.);
#272=ORIENTED_EDGE('',*,*,#398,.T.);
#273=ORIENTED_EDGE('',*,*,#428,.T.);
#274=ORIENTED_EDGE('',*,*,#429,.F.);
#275=ORIENTED_EDGE('',*,*,#431,.F.);
#276=ORIENTED_EDGE('',*,*,#432,.F.);
#277=ORIENTED_EDGE('',*,*,#431,.T.);
#278=ORIENTED_EDGE('',*,*,#433,.F.);
#279=ORIENTED_EDGE('',*,*,#376,.T.);
#280=ORIENTED_EDGE('',*,*,#434,.F.);
#281=ORIENTED_EDGE('',*,*,#385,.T.);
#282=ORIENTED_EDGE('',*,*,#435,.F.);
#283=ORIENTED_EDGE('',*,*,#386,.T.);
#284=ORIENTED_EDGE('',*,*,#435,.T.);
#285=ORIENTED_EDGE('',*,*,#434,.T.);
#286=ORIENTED_EDGE('',*,*,#433,.T.);
#287=ORIENTED_EDGE('',*,*,#432,.T.);
#288=ORIENTED_EDGE('',*,*,#436,.F.);
#289=ORIENTED_EDGE('',*,*,#437,.F.);
#290=ORIENTED_EDGE('',*,*,#438,.F.);
#291=ORIENTED_EDGE('',*,*,#439,.F.);
#292=ORIENTED_EDGE('',*,*,#393,.F.);
#293=ORIENTED_EDGE('',*,*,#400,.F.);
#294=ORIENTED_EDGE('',*,*,#405,.T.);
#295=ORIENTED_EDGE('',*,*,#414,.T.);
#296=ORIENTED_EDGE('',*,*,#440,.F.);
#297=ORIENTED_EDGE('',*,*,#441,.T.);
#298=ORIENTED_EDGE('',*,*,#442,.F.);
#299=ORIENTED_EDGE('',*,*,#443,.T.);
#300=ORIENTED_EDGE('',*,*,#444,.T.);
#301=ORIENTED_EDGE('',*,*,#445,.T.);
#302=ORIENTED_EDGE('',*,*,#446,.T.);
#303=ORIENTED_EDGE('',*,*,#447,.T.);
#304=ORIENTED_EDGE('',*,*,#448,.T.);
#305=ORIENTED_EDGE('',*,*,#449,.F.);
#306=ORIENTED_EDGE('',*,*,#450,.F.);
#307=ORIENTED_EDGE('',*,*,#451,.F.);
#308=ORIENTED_EDGE('',*,*,#452,.F.);
#309=ORIENTED_EDGE('',*,*,#453,.F.);
#310=ORIENTED_EDGE('',*,*,#454,.T.);
#311=ORIENTED_EDGE('',*,*,#455,.F.);
#312=ORIENTED_EDGE('',*,*,#449,.T.);
#313=ORIENTED_EDGE('',*,*,#456,.F.);
#314=ORIENTED_EDGE('',*,*,#447,.F.);
#315=ORIENTED_EDGE('',*,*,#457,.T.);
#316=ORIENTED_EDGE('',*,*,#450,.T.);
#317=ORIENTED_EDGE('',*,*,#457,.F.);
#318=ORIENTED_EDGE('',*,*,#446,.F.);
#319=ORIENTED_EDGE('',*,*,#458,.T.);
#320=ORIENTED_EDGE('',*,*,#451,.T.);
#321=ORIENTED_EDGE('',*,*,#458,.F.);
#322=ORIENTED_EDGE('',*,*,#445,.F.);
#323=ORIENTED_EDGE('',*,*,#459,.T.);
#324=ORIENTED_EDGE('',*,*,#452,.T.);
#325=ORIENTED_EDGE('',*,*,#459,.F.);
#326=ORIENTED_EDGE('',*,*,#444,.F.);
#327=ORIENTED_EDGE('',*,*,#460,.T.);
#328=ORIENTED_EDGE('',*,*,#453,.T.);
#329=ORIENTED_EDGE('',*,*,#460,.F.);
#330=ORIENTED_EDGE('',*,*,#443,.F.);
#331=ORIENTED_EDGE('',*,*,#461,.T.);
#332=ORIENTED_EDGE('',*,*,#454,.F.);
#333=ORIENTED_EDGE('',*,*,#461,.F.);
#334=ORIENTED_EDGE('',*,*,#442,.T.);
#335=ORIENTED_EDGE('',*,*,#462,.T.);
#336=ORIENTED_EDGE('',*,*,#455,.T.);
#337=ORIENTED_EDGE('',*,*,#462,.F.);
#338=ORIENTED_EDGE('',*,*,#441,.F.);
#339=ORIENTED_EDGE('',*,*,#463,.T.);
#340=ORIENTED_EDGE('',*,*,#464,.F.);
#341=ORIENTED_EDGE('',*,*,#465,.T.);
#342=ORIENTED_EDGE('',*,*,#466,.T.);
#343=ORIENTED_EDGE('',*,*,#467,.F.);
#344=ORIENTED_EDGE('',*,*,#448,.F.);
#345=ORIENTED_EDGE('',*,*,#463,.F.);
#346=ORIENTED_EDGE('',*,*,#440,.T.);
#347=ORIENTED_EDGE('',*,*,#456,.T.);
#348=ORIENTED_EDGE('',*,*,#468,.F.);
#349=ORIENTED_EDGE('',*,*,#439,.T.);
#350=ORIENTED_EDGE('',*,*,#468,.T.);
#351=ORIENTED_EDGE('',*,*,#469,.F.);
#352=ORIENTED_EDGE('',*,*,#438,.T.);
#353=ORIENTED_EDGE('',*,*,#469,.T.);
#354=ORIENTED_EDGE('',*,*,#470,.F.);
#355=ORIENTED_EDGE('',*,*,#437,.T.);
#356=ORIENTED_EDGE('',*,*,#470,.T.);
#357=ORIENTED_EDGE('',*,*,#471,.F.);
#358=ORIENTED_EDGE('',*,*,#436,.T.);
#359=ORIENTED_EDGE('',*,*,#471,.T.);
#360=ORIENTED_EDGE('',*,*,#472,.T.);
#361=ORIENTED_EDGE('',*,*,#466,.F.);
#362=ORIENTED_EDGE('',*,*,#473,.F.);
#363=ORIENTED_EDGE('',*,*,#412,.F.);
#364=ORIENTED_EDGE('',*,*,#411,.T.);
#365=ORIENTED_EDGE('',*,*,#474,.T.);
#366=ORIENTED_EDGE('',*,*,#467,.T.);
#367=ORIENTED_EDGE('',*,*,#472,.F.);
#368=ORIENTED_EDGE('',*,*,#473,.T.);
#369=ORIENTED_EDGE('',*,*,#465,.F.);
#370=ORIENTED_EDGE('',*,*,#475,.F.);
#371=ORIENTED_EDGE('',*,*,#409,.F.);
#372=ORIENTED_EDGE('',*,*,#410,.T.);
#373=ORIENTED_EDGE('',*,*,#475,.T.);
#374=ORIENTED_EDGE('',*,*,#464,.T.);
#375=ORIENTED_EDGE('',*,*,#474,.F.);
#376=EDGE_CURVE('',#476,#476,#548,.T.);
#377=EDGE_CURVE('',#477,#478,#24,.T.);
#378=EDGE_CURVE('',#477,#479,#25,.T.);
#379=EDGE_CURVE('',#480,#479,#26,.T.);
#380=EDGE_CURVE('',#480,#478,#27,.T.);
#381=EDGE_CURVE('',#481,#482,#28,.T.);
#382=EDGE_CURVE('',#483,#481,#29,.T.);
#383=EDGE_CURVE('',#483,#484,#30,.T.);
#384=EDGE_CURVE('',#482,#484,#31,.T.);
#385=EDGE_CURVE('',#485,#485,#549,.T.);
#386=EDGE_CURVE('',#486,#486,#550,.T.);
#387=EDGE_CURVE('',#487,#488,#32,.T.);
#388=EDGE_CURVE('',#488,#489,#33,.T.);
#389=EDGE_CURVE('',#489,#490,#34,.T.);
#390=EDGE_CURVE('',#487,#490,#35,.T.);
#391=EDGE_CURVE('',#489,#491,#36,.T.);
#392=EDGE_CURVE('',#492,#488,#37,.T.);
#393=EDGE_CURVE('',#492,#493,#38,.T.);
#394=EDGE_CURVE('',#493,#479,#39,.T.);
#395=EDGE_CURVE('',#477,#494,#40,.T.);
#396=EDGE_CURVE('',#491,#494,#41,.T.);
#397=EDGE_CURVE('',#495,#496,#42,.T.);
#398=EDGE_CURVE('',#497,#495,#43,.T.);
#399=EDGE_CURVE('',#498,#497,#44,.T.);
#400=EDGE_CURVE('',#498,#492,#45,.T.);
#401=EDGE_CURVE('',#487,#499,#46,.T.);
#402=EDGE_CURVE('',#496,#499,#47,.T.);
#403=EDGE_CURVE('',#483,#500,#48,.T.);
#404=EDGE_CURVE('',#501,#481,#49,.T.);
#405=EDGE_CURVE('',#498,#501,#50,.T.);
#406=EDGE_CURVE('',#497,#502,#51,.T.);
#407=EDGE_CURVE('',#502,#503,#52,.T.);
#408=EDGE_CURVE('',#503,#500,#53,.T.);
#409=EDGE_CURVE('',#504,#505,#54,.T.);
#410=EDGE_CURVE('',#506,#505,#55,.T.);
#411=EDGE_CURVE('',#507,#506,#56,.T.);
#412=EDGE_CURVE('',#507,#504,#57,.T.);
#413=EDGE_CURVE('',#480,#508,#58,.T.);
#414=EDGE_CURVE('',#501,#493,#59,.T.);
#415=EDGE_CURVE('',#482,#509,#60,.T.);
#416=EDGE_CURVE('',#509,#508,#61,.T.);
#417=EDGE_CURVE('',#494,#510,#62,.T.);
#418=EDGE_CURVE('',#508,#510,#63,.T.);
#419=EDGE_CURVE('',#509,#511,#64,.T.);
#420=EDGE_CURVE('',#500,#511,#65,.T.);
#421=EDGE_CURVE('',#503,#512,#66,.T.);
#422=EDGE_CURVE('',#496,#512,#67,.T.);
#423=EDGE_CURVE('',#499,#513,#68,.T.);
#424=EDGE_CURVE('',#491,#513,#69,.T.);
#425=EDGE_CURVE('',#484,#511,#70,.T.);
#426=EDGE_CURVE('',#490,#513,#71,.T.);
#427=EDGE_CURVE('',#514,#512,#72,.T.);
#428=EDGE_CURVE('',#495,#514,#73,.T.);
#429=EDGE_CURVE('',#502,#514,#74,.T.);
#430=EDGE_CURVE('',#478,#510,#75,.T.);
#431=EDGE_CURVE('',#515,#515,#551,.T.);
#432=EDGE_CURVE('',#516,#516,#552,.T.);
#433=EDGE_CURVE('',#517,#517,#553,.T.);
#434=EDGE_CURVE('',#518,#518,#554,.T.);
#435=EDGE_CURVE('',#519,#519,#555,.T.);
#436=EDGE_CURVE('',#520,#520,#556,.T.);
#437=EDGE_CURVE('',#521,#521,#557,.T.);
#438=EDGE_CURVE('',#522,#522,#558,.T.);
#439=EDGE_CURVE('',#523,#523,#559,.T.);
#440=EDGE_CURVE('',#524,#525,#76,.T.);
#441=EDGE_CURVE('',#524,#526,#560,.T.);
#442=EDGE_CURVE('',#527,#526,#77,.T.);
#443=EDGE_CURVE('',#527,#528,#561,.T.);
#444=EDGE_CURVE('',#528,#529,#78,.T.);
#445=EDGE_CURVE('',#529,#530,#562,.T.);
#446=EDGE_CURVE('',#530,#531,#79,.T.);
#447=EDGE_CURVE('',#531,#525,#563,.T.);
#448=EDGE_CURVE('',#532,#533,#80,.T.);
#449=EDGE_CURVE('',#534,#533,#564,.T.);
#450=EDGE_CURVE('',#535,#534,#81,.T.);
#451=EDGE_CURVE('',#536,#535,#565,.T.);
#452=EDGE_CURVE('',#537,#536,#82,.T.);
#453=EDGE_CURVE('',#538,#537,#566,.T.);
#454=EDGE_CURVE('',#538,#539,#83,.T.);
#455=EDGE_CURVE('',#532,#539,#567,.T.);
#456=EDGE_CURVE('',#525,#533,#84,.T.);
#457=EDGE_CURVE('',#531,#534,#85,.T.);
#458=EDGE_CURVE('',#530,#535,#86,.T.);
#459=EDGE_CURVE('',#529,#536,#87,.T.);
#460=EDGE_CURVE('',#528,#537,#88,.T.);
#461=EDGE_CURVE('',#527,#538,#89,.T.);
#462=EDGE_CURVE('',#526,#539,#90,.T.);
#463=EDGE_CURVE('',#524,#532,#91,.T.);
#464=EDGE_CURVE('',#540,#541,#92,.T.);
#465=EDGE_CURVE('',#540,#542,#93,.T.);
#466=EDGE_CURVE('',#542,#543,#94,.T.);
#467=EDGE_CURVE('',#541,#543,#95,.T.);
#468=EDGE_CURVE('',#544,#544,#568,.T.);
#469=EDGE_CURVE('',#545,#545,#569,.T.);
#470=EDGE_CURVE('',#546,#546,#570,.T.);
#471=EDGE_CURVE('',#547,#547,#571,.T.);
#472=EDGE_CURVE('',#507,#543,#96,.T.);
#473=EDGE_CURVE('',#504,#542,#97,.T.);
#474=EDGE_CURVE('',#506,#541,#98,.T.);
#475=EDGE_CURVE('',#505,#540,#99,.T.);
#476=VERTEX_POINT('',#1093);
#477=VERTEX_POINT('',#1095);
#478=VERTEX_POINT('',#1096);
#479=VERTEX_POINT('',#1098);
#480=VERTEX_POINT('',#1100);
#481=VERTEX_POINT('',#1104);
#482=VERTEX_POINT('',#1105);
#483=VERTEX_POINT('',#1107);
#484=VERTEX_POINT('',#1109);
#485=VERTEX_POINT('',#1112);
#486=VERTEX_POINT('',#1115);
#487=VERTEX_POINT('',#1117);
#488=VERTEX_POINT('',#1118);
#489=VERTEX_POINT('',#1120);
#490=VERTEX_POINT('',#1122);
#491=VERTEX_POINT('',#1126);
#492=VERTEX_POINT('',#1128);
#493=VERTEX_POINT('',#1130);
#494=VERTEX_POINT('',#1133);
#495=VERTEX_POINT('',#1137);
#496=VERTEX_POINT('',#1138);
#497=VERTEX_POINT('',#1140);
#498=VERTEX_POINT('',#1142);
#499=VERTEX_POINT('',#1145);
#500=VERTEX_POINT('',#1149);
#501=VERTEX_POINT('',#1151);
#502=VERTEX_POINT('',#1154);
#503=VERTEX_POINT('',#1156);
#504=VERTEX_POINT('',#1160);
#505=VERTEX_POINT('',#1161);
#506=VERTEX_POINT('',#1163);
#507=VERTEX_POINT('',#1165);
#508=VERTEX_POINT('',#1168);
#509=VERTEX_POINT('',#1171);
#510=VERTEX_POINT('',#1175);
#511=VERTEX_POINT('',#1178);
#512=VERTEX_POINT('',#1181);
#513=VERTEX_POINT('',#1184);
#514=VERTEX_POINT('',#1194);
#515=VERTEX_POINT('',#1203);
#516=VERTEX_POINT('',#1206);
#517=VERTEX_POINT('',#1209);
#518=VERTEX_POINT('',#1212);
#519=VERTEX_POINT('',#1215);
#520=VERTEX_POINT('',#1222);
#521=VERTEX_POINT('',#1224);
#522=VERTEX_POINT('',#1226);
#523=VERTEX_POINT('',#1228);
#524=VERTEX_POINT('',#1230);
#525=VERTEX_POINT('',#1231);
#526=VERTEX_POINT('',#1233);
#527=VERTEX_POINT('',#1235);
#528=VERTEX_POINT('',#1237);
#529=VERTEX_POINT('',#1239);
#530=VERTEX_POINT('',#1241);
#531=VERTEX_POINT('',#1243);
#532=VERTEX_POINT('',#1247);
#533=VERTEX_POINT('',#1248);
#534=VERTEX_POINT('',#1250);
#535=VERTEX_POINT('',#1252);
#536=VERTEX_POINT('',#1254);
#537=VERTEX_POINT('',#1256);
#538=VERTEX_POINT('',#1258);
#539=VERTEX_POINT('',#1260);
#540=VERTEX_POINT('',#1279);
#541=VERTEX_POINT('',#1280);
#542=VERTEX_POINT('',#1282);
#543=VERTEX_POINT('',#1284);
#544=VERTEX_POINT('',#1288);
#545=VERTEX_POINT('',#1292);
#546=VERTEX_POINT('',#1296);
#547=VERTEX_POINT('',#1300);
#548=CIRCLE('',#800,0.00235);
#549=CIRCLE('',#802,0.00235);
#550=CIRCLE('',#804,0.00235);
#551=CIRCLE('',#819,0.00235);
#552=CIRCLE('',#821,0.00235);
#553=CIRCLE('',#823,0.00235);
#554=CIRCLE('',#825,0.00235);
#555=CIRCLE('',#827,0.00235);
#556=CIRCLE('',#833,0.00235);
#557=CIRCLE('',#834,0.00235);
#558=CIRCLE('',#835,0.00235);
#559=CIRCLE('',#836,0.00235);
#560=CIRCLE('',#837,0.008);
#561=CIRCLE('',#838,0.008);
#562=CIRCLE('',#839,0.008);
#563=CIRCLE('',#840,0.008);
#564=CIRCLE('',#842,0.008);
#565=CIRCLE('',#843,0.008);
#566=CIRCLE('',#844,0.008);
#567=CIRCLE('',#845,0.008);
#568=CIRCLE('',#855,0.00235);
#569=CIRCLE('',#858,0.00235);
#570=CIRCLE('',#861,0.00235);
#571=CIRCLE('',#864,0.00235);
#572=EDGE_LOOP('',(#176));
#573=EDGE_LOOP('',(#177,#178,#179,#180));
#574=EDGE_LOOP('',(#181,#182,#183,#184));
#575=EDGE_LOOP('',(#185));
#576=EDGE_LOOP('',(#186));
#577=EDGE_LOOP('',(#187,#188,#189,#190));
#578=EDGE_LOOP('',(#191,#192,#193,#194,#195,#196,#197,#198));
#579=EDGE_LOOP('',(#199,#200,#201,#202,#203,#204,#205,#206));
#580=EDGE_LOOP('',(#207,#208,#209,#210,#211,#212,#213,#214));
#581=EDGE_LOOP('',(#215,#216,#217,#218));
#582=EDGE_LOOP('',(#219,#220,#221,#222,#223,#224,#225,#226));
#583=EDGE_LOOP('',(#227,#228,#229,#230,#231,#232,#233,#234,#235,#236,#237,
#238));
#584=EDGE_LOOP('',(#239,#240,#241,#242));
#585=EDGE_LOOP('',(#243,#244,#245,#246));
#586=EDGE_LOOP('',(#247,#248,#249,#250));
#587=EDGE_LOOP('',(#251,#252,#253,#254));
#588=EDGE_LOOP('',(#255,#256,#257,#258));
#589=EDGE_LOOP('',(#259,#260,#261,#262));
#590=EDGE_LOOP('',(#263,#264,#265,#266));
#591=EDGE_LOOP('',(#267,#268,#269,#270));
#592=EDGE_LOOP('',(#271,#272,#273,#274));
#593=EDGE_LOOP('',(#275));
#594=EDGE_LOOP('',(#276));
#595=EDGE_LOOP('',(#277));
#596=EDGE_LOOP('',(#278));
#597=EDGE_LOOP('',(#279));
#598=EDGE_LOOP('',(#280));
#599=EDGE_LOOP('',(#281));
#600=EDGE_LOOP('',(#282));
#601=EDGE_LOOP('',(#283));
#602=EDGE_LOOP('',(#284));
#603=EDGE_LOOP('',(#285));
#604=EDGE_LOOP('',(#286));
#605=EDGE_LOOP('',(#287));
#606=EDGE_LOOP('',(#288));
#607=EDGE_LOOP('',(#289));
#608=EDGE_LOOP('',(#290));
#609=EDGE_LOOP('',(#291));
#610=EDGE_LOOP('',(#292,#293,#294,#295));
#611=EDGE_LOOP('',(#296,#297,#298,#299,#300,#301,#302,#303));
#612=EDGE_LOOP('',(#304,#305,#306,#307,#308,#309,#310,#311));
#613=EDGE_LOOP('',(#312,#313,#314,#315));
#614=EDGE_LOOP('',(#316,#317,#318,#319));
#615=EDGE_LOOP('',(#320,#321,#322,#323));
#616=EDGE_LOOP('',(#324,#325,#326,#327));
#617=EDGE_LOOP('',(#328,#329,#330,#331));
#618=EDGE_LOOP('',(#332,#333,#334,#335));
#619=EDGE_LOOP('',(#336,#337,#338,#339));
#620=EDGE_LOOP('',(#340,#341,#342,#343));
#621=EDGE_LOOP('',(#344,#345,#346,#347));
#622=EDGE_LOOP('',(#348));
#623=EDGE_LOOP('',(#349));
#624=EDGE_LOOP('',(#350));
#625=EDGE_LOOP('',(#351));
#626=EDGE_LOOP('',(#352));
#627=EDGE_LOOP('',(#353));
#628=EDGE_LOOP('',(#354));
#629=EDGE_LOOP('',(#355));
#630=EDGE_LOOP('',(#356));
#631=EDGE_LOOP('',(#357));
#632=EDGE_LOOP('',(#358));
#633=EDGE_LOOP('',(#359));
#634=EDGE_LOOP('',(#360,#361,#362,#363));
#635=EDGE_LOOP('',(#364,#365,#366,#367));
#636=EDGE_LOOP('',(#368,#369,#370,#371));
#637=EDGE_LOOP('',(#372,#373,#374,#375));
#638=FACE_BOUND('',#572,.T.);
#639=FACE_BOUND('',#573,.T.);
#640=FACE_BOUND('',#574,.T.);
#641=FACE_BOUND('',#575,.T.);
#642=FACE_BOUND('',#576,.T.);
#643=FACE_BOUND('',#577,.T.);
#644=FACE_BOUND('',#578,.T.);
#645=FACE_BOUND('',#579,.T.);
#646=FACE_BOUND('',#580,.T.);
#647=FACE_BOUND('',#581,.T.);
#648=FACE_BOUND('',#582,.T.);
#649=FACE_BOUND('',#583,.T.);
#650=FACE_BOUND('',#584,.T.);
#651=FACE_BOUND('',#585,.T.);
#652=FACE_BOUND('',#586,.T.);
#653=FACE_BOUND('',#587,.T.);
#654=FACE_BOUND('',#588,.T.);
#655=FACE_BOUND('',#589,.T.);
#656=FACE_BOUND('',#590,.T.);
#657=FACE_BOUND('',#591,.T.);
#658=FACE_BOUND('',#592,.T.);
#659=FACE_BOUND('',#593,.T.);
#660=FACE_BOUND('',#594,.T.);
#661=FACE_BOUND('',#595,.T.);
#662=FACE_BOUND('',#596,.T.);
#663=FACE_BOUND('',#597,.T.);
#664=FACE_BOUND('',#598,.T.);
#665=FACE_BOUND('',#599,.T.);
#666=FACE_BOUND('',#600,.T.);
#667=FACE_BOUND('',#601,.T.);
#668=FACE_BOUND('',#602,.T.);
#669=FACE_BOUND('',#603,.T.);
#670=FACE_BOUND('',#604,.T.);
#671=FACE_BOUND('',#605,.T.);
#672=FACE_BOUND('',#606,.T.);
#673=FACE_BOUND('',#607,.T.);
#674=FACE_BOUND('',#608,.T.);
#675=FACE_BOUND('',#609,.T.);
#676=FACE_BOUND('',#610,.T.);
#677=FACE_BOUND('',#611,.T.);
#678=FACE_BOUND('',#612,.T.);
#679=FACE_BOUND('',#613,.T.);
#680=FACE_BOUND('',#614,.T.);
#681=FACE_BOUND('',#615,.T.);
#682=FACE_BOUND('',#616,.T.);
#683=FACE_BOUND('',#617,.T.);
#684=FACE_BOUND('',#618,.T.);
#685=FACE_BOUND('',#619,.T.);
#686=FACE_BOUND('',#620,.T.);
#687=FACE_BOUND('',#621,.T.);
#688=FACE_BOUND('',#622,.T.);
#689=FACE_BOUND('',#623,.T.);
#690=FACE_BOUND('',#624,.T.);
#691=FACE_BOUND('',#625,.T.);
#692=FACE_BOUND('',#626,.T.);
#693=FACE_BOUND('',#627,.T.);
#694=FACE_BOUND('',#628,.T.);
#695=FACE_BOUND('',#629,.T.);
#696=FACE_BOUND('',#630,.T.);
#697=FACE_BOUND('',#631,.T.);
#698=FACE_BOUND('',#632,.T.);
#699=FACE_BOUND('',#633,.T.);
#700=FACE_BOUND('',#634,.T.);
#701=FACE_BOUND('',#635,.T.);
#702=FACE_BOUND('',#636,.T.);
#703=FACE_BOUND('',#637,.T.);
#704=PLANE('',#799);
#705=PLANE('',#801);
#706=PLANE('',#803);
#707=PLANE('',#805);
#708=PLANE('',#806);
#709=PLANE('',#807);
#710=PLANE('',#808);
#711=PLANE('',#809);
#712=PLANE('',#810);
#713=PLANE('',#811);
#714=PLANE('',#812);
#715=PLANE('',#813);
#716=PLANE('',#814);
#717=PLANE('',#815);
#718=PLANE('',#816);
#719=PLANE('',#817);
#720=PLANE('',#818);
#721=PLANE('',#828);
#722=PLANE('',#829);
#723=PLANE('',#830);
#724=PLANE('',#831);
#725=PLANE('',#832);
#726=PLANE('',#841);
#727=PLANE('',#847);
#728=PLANE('',#849);
#729=PLANE('',#851);
#730=PLANE('',#853);
#731=PLANE('',#856);
#732=PLANE('',#859);
#733=PLANE('',#862);
#734=PLANE('',#865);
#735=PLANE('',#866);
#736=PLANE('',#867);
#737=PLANE('',#868);
#738=PLANE('',#869);
#739=ADVANCED_FACE('',(#638,#639),#704,.T.);
#740=ADVANCED_FACE('',(#640,#641),#705,.T.);
#741=ADVANCED_FACE('',(#642,#643),#706,.T.);
#742=ADVANCED_FACE('',(#644),#707,.T.);
#743=ADVANCED_FACE('',(#645),#708,.T.);
#744=ADVANCED_FACE('',(#646),#709,.F.);
#745=ADVANCED_FACE('',(#647,#648),#710,.F.);
#746=ADVANCED_FACE('',(#649),#711,.T.);
#747=ADVANCED_FACE('',(#650),#712,.F.);
#748=ADVANCED_FACE('',(#651),#713,.T.);
#749=ADVANCED_FACE('',(#652),#714,.F.);
#750=ADVANCED_FACE('',(#653),#715,.T.);
#751=ADVANCED_FACE('',(#654),#716,.F.);
#752=ADVANCED_FACE('',(#655),#717,.T.);
#753=ADVANCED_FACE('',(#656),#718,.T.);
#754=ADVANCED_FACE('',(#657),#719,.F.);
#755=ADVANCED_FACE('',(#658,#659),#720,.T.);
#756=ADVANCED_FACE('',(#660,#661),#12,.F.);
#757=ADVANCED_FACE('',(#662,#663),#13,.F.);
#758=ADVANCED_FACE('',(#664,#665),#14,.F.);
#759=ADVANCED_FACE('',(#666,#667),#15,.F.);
#760=ADVANCED_FACE('',(#668),#721,.T.);
#761=ADVANCED_FACE('',(#669),#722,.T.);
#762=ADVANCED_FACE('',(#670),#723,.T.);
#763=ADVANCED_FACE('',(#671),#724,.T.);
#764=ADVANCED_FACE('',(#672,#673,#674,#675,#676,#677),#725,.T.);
#765=ADVANCED_FACE('',(#678),#726,.F.);
#766=ADVANCED_FACE('',(#679),#16,.T.);
#767=ADVANCED_FACE('',(#680),#727,.F.);
#768=ADVANCED_FACE('',(#681),#17,.T.);
#769=ADVANCED_FACE('',(#682),#728,.F.);
#770=ADVANCED_FACE('',(#683),#18,.T.);
#771=ADVANCED_FACE('',(#684),#729,.T.);
#772=ADVANCED_FACE('',(#685),#19,.T.);
#773=ADVANCED_FACE('',(#686,#687),#730,.T.);
#774=ADVANCED_FACE('',(#688,#689),#20,.F.);
#775=ADVANCED_FACE('',(#690),#731,.T.);
#776=ADVANCED_FACE('',(#691,#692),#21,.F.);
#777=ADVANCED_FACE('',(#693),#732,.T.);
#778=ADVANCED_FACE('',(#694,#695),#22,.F.);
#779=ADVANCED_FACE('',(#696),#733,.T.);
#780=ADVANCED_FACE('',(#697,#698),#23,.F.);
#781=ADVANCED_FACE('',(#699),#734,.T.);
#782=ADVANCED_FACE('',(#700),#735,.T.);
#783=ADVANCED_FACE('',(#701),#736,.F.);
#784=ADVANCED_FACE('',(#702),#737,.T.);
#785=ADVANCED_FACE('',(#703),#738,.F.);
#786=CLOSED_SHELL('',(#739,#740,#741,#742,#743,#744,#745,#746,#747,#748,
#749,#750,#751,#752,#753,#754,#755,#756,#757,#758,#759,#760,#761,#762,#763,
#764,#765,#766,#767,#768,#769,#770,#771,#772,#773,#774,#775,#776,#777,#778,
#779,#780,#781,#782,#783,#784,#785));
#787=STYLED_ITEM('',(#788),#795);
#788=PRESENTATION_STYLE_ASSIGNMENT((#789));
#789=SURFACE_STYLE_USAGE(.BOTH.,#790);
#790=SURFACE_SIDE_STYLE('',(#791));
#791=SURFACE_STYLE_FILL_AREA(#792);
#792=FILL_AREA_STYLE('',(#793));
#793=FILL_AREA_STYLE_COLOUR('',#794);
#794=COLOUR_RGB('',0.615686274509804,0.811764705882353,0.929411764705882);
#795=MANIFOLD_SOLID_BREP('Part 1',#786);
#796=SHAPE_DEFINITION_REPRESENTATION(#1316,#797);
#797=SHAPE_REPRESENTATION('Part 1',(#798),#1311);
#798=AXIS2_PLACEMENT_3D('',#1090,#870,#871);
#799=AXIS2_PLACEMENT_3D('',#1091,#872,#873);
#800=AXIS2_PLACEMENT_3D('',#1092,#874,#875);
#801=AXIS2_PLACEMENT_3D('',#1102,#880,#881);
#802=AXIS2_PLACEMENT_3D('',#1111,#886,#887);
#803=AXIS2_PLACEMENT_3D('',#1113,#888,#889);
#804=AXIS2_PLACEMENT_3D('',#1114,#890,#891);
#805=AXIS2_PLACEMENT_3D('',#1124,#896,#897);
#806=AXIS2_PLACEMENT_3D('',#1135,#904,#905);
#807=AXIS2_PLACEMENT_3D('',#1147,#912,#913);
#808=AXIS2_PLACEMENT_3D('',#1158,#920,#921);
#809=AXIS2_PLACEMENT_3D('',#1173,#930,#931);
#810=AXIS2_PLACEMENT_3D('',#1186,#940,#941);
#811=AXIS2_PLACEMENT_3D('',#1188,#943,#944);
#812=AXIS2_PLACEMENT_3D('',#1189,#945,#946);
#813=AXIS2_PLACEMENT_3D('',#1191,#948,#949);
#814=AXIS2_PLACEMENT_3D('',#1192,#950,#951);
#815=AXIS2_PLACEMENT_3D('',#1196,#954,#955);
#816=AXIS2_PLACEMENT_3D('',#1198,#957,#958);
#817=AXIS2_PLACEMENT_3D('',#1200,#960,#961);
#818=AXIS2_PLACEMENT_3D('',#1201,#962,#963);
#819=AXIS2_PLACEMENT_3D('',#1202,#964,#965);
#820=AXIS2_PLACEMENT_3D('',#1204,#966,#967);
#821=AXIS2_PLACEMENT_3D('',#1205,#968,#969);
#822=AXIS2_PLACEMENT_3D('',#1207,#970,#971);
#823=AXIS2_PLACEMENT_3D('',#1208,#972,#973);
#824=AXIS2_PLACEMENT_3D('',#1210,#974,#975);
#825=AXIS2_PLACEMENT_3D('',#1211,#976,#977);
#826=AXIS2_PLACEMENT_3D('',#1213,#978,#979);
#827=AXIS2_PLACEMENT_3D('',#1214,#980,#981);
#828=AXIS2_PLACEMENT_3D('',#1216,#982,#983);
#829=AXIS2_PLACEMENT_3D('',#1217,#984,#985);
#830=AXIS2_PLACEMENT_3D('',#1218,#986,#987);
#831=AXIS2_PLACEMENT_3D('',#1219,#988,#989);
#832=AXIS2_PLACEMENT_3D('',#1220,#990,#991);
#833=AXIS2_PLACEMENT_3D('',#1221,#992,#993);
#834=AXIS2_PLACEMENT_3D('',#1223,#994,#995);
#835=AXIS2_PLACEMENT_3D('',#1225,#996,#997);
#836=AXIS2_PLACEMENT_3D('',#1227,#998,#999);
#837=AXIS2_PLACEMENT_3D('',#1232,#1001,#1002);
#838=AXIS2_PLACEMENT_3D('',#1236,#1004,#1005);
#839=AXIS2_PLACEMENT_3D('',#1240,#1007,#1008);
#840=AXIS2_PLACEMENT_3D('',#1244,#1010,#1011);
#841=AXIS2_PLACEMENT_3D('',#1245,#1012,#1013);
#842=AXIS2_PLACEMENT_3D('',#1249,#1015,#1016);
#843=AXIS2_PLACEMENT_3D('',#1253,#1018,#1019);
#844=AXIS2_PLACEMENT_3D('',#1257,#1021,#1022);
#845=AXIS2_PLACEMENT_3D('',#1261,#1024,#1025);
#846=AXIS2_PLACEMENT_3D('',#1262,#1026,#1027);
#847=AXIS2_PLACEMENT_3D('',#1265,#1030,#1031);
#848=AXIS2_PLACEMENT_3D('',#1267,#1033,#1034);
#849=AXIS2_PLACEMENT_3D('',#1269,#1036,#1037);
#850=AXIS2_PLACEMENT_3D('',#1271,#1039,#1040);
#851=AXIS2_PLACEMENT_3D('',#1273,#1042,#1043);
#852=AXIS2_PLACEMENT_3D('',#1275,#1045,#1046);
#853=AXIS2_PLACEMENT_3D('',#1277,#1048,#1049);
#854=AXIS2_PLACEMENT_3D('',#1286,#1054,#1055);
#855=AXIS2_PLACEMENT_3D('',#1287,#1056,#1057);
#856=AXIS2_PLACEMENT_3D('',#1289,#1058,#1059);
#857=AXIS2_PLACEMENT_3D('',#1290,#1060,#1061);
#858=AXIS2_PLACEMENT_3D('',#1291,#1062,#1063);
#859=AXIS2_PLACEMENT_3D('',#1293,#1064,#1065);
#860=AXIS2_PLACEMENT_3D('',#1294,#1066,#1067);
#861=AXIS2_PLACEMENT_3D('',#1295,#1068,#1069);
#862=AXIS2_PLACEMENT_3D('',#1297,#1070,#1071);
#863=AXIS2_PLACEMENT_3D('',#1298,#1072,#1073);
#864=AXIS2_PLACEMENT_3D('',#1299,#1074,#1075);
#865=AXIS2_PLACEMENT_3D('',#1301,#1076,#1077);
#866=AXIS2_PLACEMENT_3D('',#1302,#1078,#1079);
#867=AXIS2_PLACEMENT_3D('',#1305,#1082,#1083);
#868=AXIS2_PLACEMENT_3D('',#1307,#1085,#1086);
#869=AXIS2_PLACEMENT_3D('',#1309,#1088,#1089);
#870=DIRECTION('',(0.,0.,1.));
#871=DIRECTION('',(1.,0.,0.));
#872=DIRECTION('',(0.,0.,1.));
#873=DIRECTION('',(1.,0.,0.));
#874=DIRECTION('',(0.,0.,1.));
#875=DIRECTION('',(1.,0.,0.));
#876=DIRECTION('',(-1.,0.,0.));
#877=DIRECTION('',(-1.85037170770859E-16,1.,0.));
#878=DIRECTION('',(1.,0.,0.));
#879=DIRECTION('',(0.,-1.,0.));
#880=DIRECTION('',(0.,0.,1.));
#881=DIRECTION('',(1.,0.,0.));
#882=DIRECTION('',(1.,0.,0.));
#883=DIRECTION('',(0.,1.,0.));
#884=DIRECTION('',(1.,0.,0.));
#885=DIRECTION('',(0.,-1.,0.));
#886=DIRECTION('',(0.,0.,1.));
#887=DIRECTION('',(1.,0.,0.));
#888=DIRECTION('',(0.,0.,1.));
#889=DIRECTION('',(1.,0.,0.));
#890=DIRECTION('',(0.,0.,1.));
#891=DIRECTION('',(1.,0.,0.));
#892=DIRECTION('',(1.,0.,0.));
#893=DIRECTION('',(-1.85037170770859E-16,1.,0.));
#894=DIRECTION('',(-1.,0.,0.));
#895=DIRECTION('',(0.,1.,0.));
#896=DIRECTION('',(-1.,-1.85037170770859E-16,0.));
#897=DIRECTION('',(1.85037170770859E-16,-1.,0.));
#898=DIRECTION('',(0.,0.,-1.));
#899=DIRECTION('',(0.,0.,-1.));
#900=DIRECTION('',(-1.85037170770859E-16,1.,0.));
#901=DIRECTION('',(0.,0.,-1.));
#902=DIRECTION('',(0.,0.,-1.));
#903=DIRECTION('',(-1.85037170770859E-16,1.,0.));
#904=DIRECTION('',(0.,1.,0.));
#905=DIRECTION('',(0.,0.,1.));
#906=DIRECTION('',(0.,0.,-1.));
#907=DIRECTION('',(1.,0.,0.));
#908=DIRECTION('',(0.,0.,-1.));
#909=DIRECTION('',(1.,0.,0.));
#910=DIRECTION('',(0.,0.,-1.));
#911=DIRECTION('',(1.,0.,0.));
#912=DIRECTION('',(-1.,0.,0.));
#913=DIRECTION('',(0.,0.,1.));
#914=DIRECTION('',(0.,0.,-1.));
#915=DIRECTION('',(0.,0.,-1.));
#916=DIRECTION('',(0.,1.,0.));
#917=DIRECTION('',(0.,1.,0.));
#918=DIRECTION('',(0.,0.,-1.));
#919=DIRECTION('',(0.,1.,0.));
#920=DIRECTION('',(0.,1.,0.));
#921=DIRECTION('',(0.,0.,1.));
#922=DIRECTION('',(-1.,0.,0.));
#923=DIRECTION('',(0.,0.,-1.));
#924=DIRECTION('',(-1.,0.,0.));
#925=DIRECTION('',(0.,0.,-1.));
#926=DIRECTION('',(0.,0.,-1.));
#927=DIRECTION('',(1.,0.,0.));
#928=DIRECTION('',(0.,0.,-1.));
#929=DIRECTION('',(1.,0.,0.));
#930=DIRECTION('',(0.,0.,1.));
#931=DIRECTION('',(1.,0.,0.));
#932=DIRECTION('',(-1.,0.,0.));
#933=DIRECTION('',(0.,-1.,0.));
#934=DIRECTION('',(0.,-1.,0.));
#935=DIRECTION('',(1.,0.,0.));
#936=DIRECTION('',(1.,0.,0.));
#937=DIRECTION('',(-3.46944695195362E-16,1.,0.));
#938=DIRECTION('',(0.,1.,0.));
#939=DIRECTION('',(-1.,0.,0.));
#940=DIRECTION('',(0.,1.,0.));
#941=DIRECTION('',(0.,0.,1.));
#942=DIRECTION('',(0.,0.,-1.));
#943=DIRECTION('',(1.,0.,0.));
#944=DIRECTION('',(0.,0.,-1.));
#945=DIRECTION('',(0.,-1.,0.));
#946=DIRECTION('',(0.,0.,-1.));
#947=DIRECTION('',(0.,0.,-1.));
#948=DIRECTION('',(-1.,0.,0.));
#949=DIRECTION('',(0.,0.,1.));
#950=DIRECTION('',(-1.,-3.46944695195362E-16,0.));
#951=DIRECTION('',(3.46944695195362E-16,-1.,0.));
#952=DIRECTION('',(0.,0.,-1.));
#953=DIRECTION('',(-3.46944695195362E-16,1.,0.));
#954=DIRECTION('',(0.,1.,0.));
#955=DIRECTION('',(0.,0.,1.));
#956=DIRECTION('',(1.,0.,0.));
#957=DIRECTION('',(0.,-1.,0.));
#958=DIRECTION('',(0.,0.,-1.));
#959=DIRECTION('',(0.,0.,-1.));
#960=DIRECTION('',(1.,0.,0.));
#961=DIRECTION('',(0.,0.,-1.));
#962=DIRECTION('',(0.,0.,1.));
#963=DIRECTION('',(1.,0.,0.));
#964=DIRECTION('',(0.,0.,1.));
#965=DIRECTION('',(1.,0.,0.));
#966=DIRECTION('',(0.,0.,-1.));
#967=DIRECTION('',(-1.,0.,0.));
#968=DIRECTION('',(0.,0.,1.));
#969=DIRECTION('',(1.,0.,0.));
#970=DIRECTION('',(0.,0.,-1.));
#971=DIRECTION('',(-1.,0.,0.));
#972=DIRECTION('',(0.,0.,1.));
#973=DIRECTION('',(1.,0.,0.));
#974=DIRECTION('',(0.,0.,-1.));
#975=DIRECTION('',(-1.,0.,0.));
#976=DIRECTION('',(0.,0.,1.));
#977=DIRECTION('',(1.,0.,0.));
#978=DIRECTION('',(0.,0.,-1.));
#979=DIRECTION('',(-1.,0.,0.));
#980=DIRECTION('',(0.,0.,1.));
#981=DIRECTION('',(1.,0.,0.));
#982=DIRECTION('',(0.,0.,1.));
#983=DIRECTION('',(1.,0.,0.));
#984=DIRECTION('',(0.,0.,1.));
#985=DIRECTION('',(1.,0.,0.));
#986=DIRECTION('',(0.,0.,1.));
#987=DIRECTION('',(1.,0.,0.));
#988=DIRECTION('',(0.,0.,1.));
#989=DIRECTION('',(1.,0.,0.));
#990=DIRECTION('',(0.,0.,1.));
#991=DIRECTION('',(1.,0.,0.));
#992=DIRECTION('',(0.,0.,1.));
#993=DIRECTION('',(1.,0.,0.));
#994=DIRECTION('',(0.,0.,1.));
#995=DIRECTION('',(1.,0.,0.));
#996=DIRECTION('',(0.,0.,1.));
#997=DIRECTION('',(1.,0.,0.));
#998=DIRECTION('',(0.,0.,1.));
#999=DIRECTION('',(1.,0.,0.));
#1000=DIRECTION('',(1.,0.,0.));
#1001=DIRECTION('',(0.,0.,1.));
#1002=DIRECTION('',(1.,0.,0.));
#1003=DIRECTION('',(-1.85037170770859E-16,1.,0.));
#1004=DIRECTION('',(0.,0.,1.));
#1005=DIRECTION('',(1.,0.,0.));
#1006=DIRECTION('',(1.,0.,0.));
#1007=DIRECTION('',(0.,0.,1.));
#1008=DIRECTION('',(1.,0.,0.));
#1009=DIRECTION('',(-1.85037170770859E-16,1.,0.));
#1010=DIRECTION('',(0.,0.,1.));
#1011=DIRECTION('',(1.,0.,0.));
#1012=DIRECTION('',(0.,0.,1.));
#1013=DIRECTION('',(1.,0.,0.));
#1014=DIRECTION('',(1.,0.,0.));
#1015=DIRECTION('',(0.,0.,1.));
#1016=DIRECTION('',(1.,0.,0.));
#1017=DIRECTION('',(-1.85037170770859E-16,1.,0.));
#1018=DIRECTION('',(0.,0.,1.));
#1019=DIRECTION('',(1.,0.,0.));
#1020=DIRECTION('',(1.,0.,0.));
#1021=DIRECTION('',(0.,0.,1.));
#1022=DIRECTION('',(1.,0.,0.));
#1023=DIRECTION('',(-1.85037170770859E-16,1.,0.));
#1024=DIRECTION('',(0.,0.,1.));
#1025=DIRECTION('',(1.,0.,0.));
#1026=DIRECTION('',(0.,0.,-1.));
#1027=DIRECTION('',(-1.,0.,0.));
#1028=DIRECTION('',(0.,0.,-1.));
#1029=DIRECTION('',(0.,0.,-1.));
#1030=DIRECTION('',(-1.,-1.85037170770859E-16,0.));
#1031=DIRECTION('',(1.85037170770859E-16,-1.,0.));
#1032=DIRECTION('',(0.,0.,-1.));
#1033=DIRECTION('',(0.,0.,-1.));
#1034=DIRECTION('',(-1.,0.,0.));
#1035=DIRECTION('',(0.,0.,-1.));
#1036=DIRECTION('',(0.,1.,0.));
#1037=DIRECTION('',(0.,0.,1.));
#1038=DIRECTION('',(0.,0.,-1.));
#1039=DIRECTION('',(0.,0.,-1.));
#1040=DIRECTION('',(-1.,0.,0.));
#1041=DIRECTION('',(0.,0.,-1.));
#1042=DIRECTION('',(-1.,-1.85037170770859E-16,0.));
#1043=DIRECTION('',(1.85037170770859E-16,-1.,0.));
#1044=DIRECTION('',(0.,0.,-1.));
#1045=DIRECTION('',(0.,0.,-1.));
#1046=DIRECTION('',(-1.,0.,0.));
#1047=DIRECTION('',(0.,0.,-1.));
#1048=DIRECTION('',(0.,1.,0.));
#1049=DIRECTION('',(0.,0.,1.));
#1050=DIRECTION('',(0.,0.,1.));
#1051=DIRECTION('',(1.,0.,0.));
#1052=DIRECTION('',(0.,0.,1.));
#1053=DIRECTION('',(1.,0.,0.));
#1054=DIRECTION('',(0.,0.,1.));
#1055=DIRECTION('',(1.,0.,0.));
#1056=DIRECTION('',(0.,0.,1.));
#1057=DIRECTION('',(1.,0.,0.));
#1058=DIRECTION('',(0.,0.,1.));
#1059=DIRECTION('',(1.,0.,0.));
#1060=DIRECTION('',(0.,0.,1.));
#1061=DIRECTION('',(1.,0.,0.));
#1062=DIRECTION('',(0.,0.,1.));
#1063=DIRECTION('',(1.,0.,0.));
#1064=DIRECTION('',(0.,0.,1.));
#1065=DIRECTION('',(1.,0.,0.));
#1066=DIRECTION('',(0.,0.,1.));
#1067=DIRECTION('',(1.,0.,0.));
#1068=DIRECTION('',(0.,0.,1.));
#1069=DIRECTION('',(1.,0.,0.));
#1070=DIRECTION('',(0.,0.,1.));
#1071=DIRECTION('',(1.,0.,0.));
#1072=DIRECTION('',(0.,0.,1.));
#1073=DIRECTION('',(1.,0.,0.));
#1074=DIRECTION('',(0.,0.,1.));
#1075=DIRECTION('',(1.,0.,0.));
#1076=DIRECTION('',(0.,0.,1.));
#1077=DIRECTION('',(1.,0.,0.));
#1078=DIRECTION('',(-1.,0.,0.));
#1079=DIRECTION('',(0.,0.,1.));
#1080=DIRECTION('',(0.,1.,0.));
#1081=DIRECTION('',(0.,1.,0.));
#1082=DIRECTION('',(0.,0.,1.));
#1083=DIRECTION('',(1.,0.,0.));
#1084=DIRECTION('',(0.,1.,0.));
#1085=DIRECTION('',(0.,0.,1.));
#1086=DIRECTION('',(1.,0.,0.));
#1087=DIRECTION('',(0.,1.,0.));
#1088=DIRECTION('',(-1.,0.,0.));
#1089=DIRECTION('',(0.,0.,1.));
#1090=CARTESIAN_POINT('',(0.,0.,0.));
#1091=CARTESIAN_POINT('',(0.04,0.0365,0.007));
#1092=CARTESIAN_POINT('',(0.076,0.069,0.007));
#1093=CARTESIAN_POINT('',(0.07835,0.069,0.007));
#1094=CARTESIAN_POINT('',(0.076,0.064,0.007));
#1095=CARTESIAN_POINT('',(0.081,0.064,0.007));
#1096=CARTESIAN_POINT('',(0.071,0.064,0.007));
#1097=CARTESIAN_POINT('',(0.081,0.0365,0.007));
#1098=CARTESIAN_POINT('',(0.081,0.074,0.007));
#1099=CARTESIAN_POINT('',(0.04,0.074,0.007));
#1100=CARTESIAN_POINT('',(0.071,0.074,0.007));
#1101=CARTESIAN_POINT('',(0.071,0.069,0.007));
#1102=CARTESIAN_POINT('',(0.04,0.0365,0.007));
#1103=CARTESIAN_POINT('',(0.04,0.074,0.007));
#1104=CARTESIAN_POINT('',(-0.001,0.074,0.007));
#1105=CARTESIAN_POINT('',(0.009,0.074,0.007));
#1106=CARTESIAN_POINT('',(-0.001,0.0365,0.007));
#1107=CARTESIAN_POINT('',(-0.001,0.064,0.007));
#1108=CARTESIAN_POINT('',(0.004,0.064,0.007));
#1109=CARTESIAN_POINT('',(0.009,0.064,0.007));
#1110=CARTESIAN_POINT('',(0.009,0.069,0.007));
#1111=CARTESIAN_POINT('',(0.004,0.069,0.007));
#1112=CARTESIAN_POINT('',(0.00635,0.069,0.007));
#1113=CARTESIAN_POINT('',(0.04,0.0365,0.007));
#1114=CARTESIAN_POINT('',(0.076,0.004,0.007));
#1115=CARTESIAN_POINT('',(0.07835,0.004,0.007));
#1116=CARTESIAN_POINT('',(0.04,-0.001,0.007));
#1117=CARTESIAN_POINT('',(0.071,-0.001,0.007));
#1118=CARTESIAN_POINT('',(0.081,-0.001,0.007));
#1119=CARTESIAN_POINT('',(0.081,0.0365,0.007));
#1120=CARTESIAN_POINT('',(0.081,0.009,0.007));
#1121=CARTESIAN_POINT('',(0.076,0.009,0.007));
#1122=CARTESIAN_POINT('',(0.071,0.009,0.007));
#1123=CARTESIAN_POINT('',(0.071,0.004,0.007));
#1124=CARTESIAN_POINT('',(0.081,0.0365,0.006));
#1125=CARTESIAN_POINT('',(0.081,0.009,0.006));
#1126=CARTESIAN_POINT('',(0.081,0.009,0.002));
#1127=CARTESIAN_POINT('',(0.081,-0.001,0.0185));
#1128=CARTESIAN_POINT('',(0.081,-0.001,0.0185));
#1129=CARTESIAN_POINT('',(0.081,0.0365,0.0185));
#1130=CARTESIAN_POINT('',(0.081,0.074,0.0185));
#1131=CARTESIAN_POINT('',(0.081,0.074,0.0185));
#1132=CARTESIAN_POINT('',(0.081,0.064,0.006));
#1133=CARTESIAN_POINT('',(0.081,0.064,0.002));
#1134=CARTESIAN_POINT('',(0.081,0.0365,0.002));
#1135=CARTESIAN_POINT('',(0.04,-0.001,0.006));
#1136=CARTESIAN_POINT('',(0.009,-0.001,0.006));
#1137=CARTESIAN_POINT('',(0.009,-0.001,0.007));
#1138=CARTESIAN_POINT('',(0.009,-0.001,0.002));
#1139=CARTESIAN_POINT('',(0.04,-0.001,0.007));
#1140=CARTESIAN_POINT('',(-0.001,-0.001,0.007));
#1141=CARTESIAN_POINT('',(-0.001,-0.001,0.0185));
#1142=CARTESIAN_POINT('',(-0.001,-0.001,0.0185));
#1143=CARTESIAN_POINT('',(0.04,-0.001,0.0185));
#1144=CARTESIAN_POINT('',(0.071,-0.001,0.006));
#1145=CARTESIAN_POINT('',(0.071,-0.001,0.002));
#1146=CARTESIAN_POINT('',(0.04,-0.001,0.002));
#1147=CARTESIAN_POINT('',(-0.001,0.0365,0.006));
#1148=CARTESIAN_POINT('',(-0.001,0.064,0.006));
#1149=CARTESIAN_POINT('',(-0.001,0.064,0.002));
#1150=CARTESIAN_POINT('',(-0.001,0.074,0.0185));
#1151=CARTESIAN_POINT('',(-0.001,0.074,0.0185));
#1152=CARTESIAN_POINT('',(-0.001,0.0365,0.0185));
#1153=CARTESIAN_POINT('',(-0.001,0.0365,0.007));
#1154=CARTESIAN_POINT('',(-0.001,0.009,0.007));
#1155=CARTESIAN_POINT('',(-0.001,0.009,0.006));
#1156=CARTESIAN_POINT('',(-0.001,0.009,0.002));
#1157=CARTESIAN_POINT('',(-0.001,0.0365,0.002));
#1158=CARTESIAN_POINT('',(0.04,0.074,0.006));
#1159=CARTESIAN_POINT('',(0.021,0.074,0.00925));
#1160=CARTESIAN_POINT('',(0.026,0.074,0.00925));
#1161=CARTESIAN_POINT('',(0.016,0.074,0.00925));
#1162=CARTESIAN_POINT('',(0.016,0.074,0.01275));
#1163=CARTESIAN_POINT('',(0.016,0.074,0.01625));
#1164=CARTESIAN_POINT('',(0.021,0.074,0.01625));
#1165=CARTESIAN_POINT('',(0.026,0.074,0.01625));
#1166=CARTESIAN_POINT('',(0.026,0.074,0.01275));
#1167=CARTESIAN_POINT('',(0.071,0.074,0.006));
#1168=CARTESIAN_POINT('',(0.071,0.074,0.002));
#1169=CARTESIAN_POINT('',(0.04,0.074,0.0185));
#1170=CARTESIAN_POINT('',(0.009,0.074,0.006));
#1171=CARTESIAN_POINT('',(0.009,0.074,0.002));
#1172=CARTESIAN_POINT('',(0.04,0.074,0.002));
#1173=CARTESIAN_POINT('',(0.04,0.0365,0.002));
#1174=CARTESIAN_POINT('',(0.076,0.064,0.002));
#1175=CARTESIAN_POINT('',(0.071,0.064,0.002));
#1176=CARTESIAN_POINT('',(0.071,0.069,0.002));
#1177=CARTESIAN_POINT('',(0.009,0.069,0.002));
#1178=CARTESIAN_POINT('',(0.009,0.064,0.002));
#1179=CARTESIAN_POINT('',(0.004,0.064,0.002));
#1180=CARTESIAN_POINT('',(0.004,0.009,0.002));
#1181=CARTESIAN_POINT('',(0.009,0.009,0.002));
#1182=CARTESIAN_POINT('',(0.009,0.004,0.002));
#1183=CARTESIAN_POINT('',(0.071,0.004,0.002));
#1184=CARTESIAN_POINT('',(0.071,0.009,0.002));
#1185=CARTESIAN_POINT('',(0.076,0.009,0.002));
#1186=CARTESIAN_POINT('',(0.004,0.064,0.006));
#1187=CARTESIAN_POINT('',(0.009,0.064,0.006));
#1188=CARTESIAN_POINT('',(0.009,0.069,0.006));
#1189=CARTESIAN_POINT('',(0.076,0.009,0.006));
#1190=CARTESIAN_POINT('',(0.071,0.009,0.006));
#1191=CARTESIAN_POINT('',(0.071,0.004,0.006));
#1192=CARTESIAN_POINT('',(0.009,0.004,0.006));
#1193=CARTESIAN_POINT('',(0.009,0.009,0.006));
#1194=CARTESIAN_POINT('',(0.009,0.009,0.007));
#1195=CARTESIAN_POINT('',(0.009,0.004,0.007));
#1196=CARTESIAN_POINT('',(0.004,0.009,0.006));
#1197=CARTESIAN_POINT('',(0.004,0.009,0.007));
#1198=CARTESIAN_POINT('',(0.076,0.064,0.006));
#1199=CARTESIAN_POINT('',(0.071,0.064,0.006));
#1200=CARTESIAN_POINT('',(0.071,0.069,0.006));
#1201=CARTESIAN_POINT('',(0.04,0.0365,0.007));
#1202=CARTESIAN_POINT('',(0.004,0.004,0.007));
#1203=CARTESIAN_POINT('',(0.00635,0.004,0.007));
#1204=CARTESIAN_POINT('',(0.004,0.004,0.006));
#1205=CARTESIAN_POINT('',(0.004,0.004,0.003));
#1206=CARTESIAN_POINT('',(0.00635,0.004,0.003));
#1207=CARTESIAN_POINT('',(0.076,0.069,0.006));
#1208=CARTESIAN_POINT('',(0.076,0.069,0.003));
#1209=CARTESIAN_POINT('',(0.07835,0.069,0.003));
#1210=CARTESIAN_POINT('',(0.004,0.069,0.006));
#1211=CARTESIAN_POINT('',(0.004,0.069,0.003));
#1212=CARTESIAN_POINT('',(0.00635,0.069,0.003));
#1213=CARTESIAN_POINT('',(0.076,0.004,0.006));
#1214=CARTESIAN_POINT('',(0.076,0.004,0.003));
#1215=CARTESIAN_POINT('',(0.07835,0.004,0.003));
#1216=CARTESIAN_POINT('',(0.04,0.0365,0.003));
#1217=CARTESIAN_POINT('',(0.04,0.0365,0.003));
#1218=CARTESIAN_POINT('',(0.04,0.0365,0.003));
#1219=CARTESIAN_POINT('',(0.04,0.0365,0.003));
#1220=CARTESIAN_POINT('',(0.04,0.0365,0.0185));
#1221=CARTESIAN_POINT('',(-0.0038284271247462,0.0768284271247462,0.0185));
#1222=CARTESIAN_POINT('',(-0.0014784271247462,0.0768284271247462,0.0185));
#1223=CARTESIAN_POINT('',(0.0838284271247462,0.0768284271247462,0.0185));
#1224=CARTESIAN_POINT('',(0.0861784271247462,0.0768284271247462,0.0185));
#1225=CARTESIAN_POINT('',(0.0838284271247462,-0.0038284271247462,0.0185));
#1226=CARTESIAN_POINT('',(0.0861784271247462,-0.0038284271247462,0.0185));
#1227=CARTESIAN_POINT('',(-0.00382842712474618,-0.00382842712474619,0.0185));
#1228=CARTESIAN_POINT('',(-0.00147842712474618,-0.00382842712474619,0.0185));
#1229=CARTESIAN_POINT('',(0.04,0.082,0.0185));
#1230=CARTESIAN_POINT('',(-0.00100000000000001,0.082,0.0185));
#1231=CARTESIAN_POINT('',(0.081,0.082,0.0185));
#1232=CARTESIAN_POINT('',(-0.00100000000000001,0.074,0.0185));
#1233=CARTESIAN_POINT('',(-0.009,0.074,0.0185));
#1234=CARTESIAN_POINT('',(-0.009,0.0365,0.0185));
#1235=CARTESIAN_POINT('',(-0.009,-0.001,0.0185));
#1236=CARTESIAN_POINT('',(-0.000999999999999979,-0.000999999999999982,0.0185));
#1237=CARTESIAN_POINT('',(-0.001,-0.009,0.0185));
#1238=CARTESIAN_POINT('',(0.04,-0.009,0.0185));
#1239=CARTESIAN_POINT('',(0.081,-0.009,0.0185));
#1240=CARTESIAN_POINT('',(0.081,-0.000999999999999975,0.0185));
#1241=CARTESIAN_POINT('',(0.089,-0.001,0.0185));
#1242=CARTESIAN_POINT('',(0.089,0.0365,0.0185));
#1243=CARTESIAN_POINT('',(0.089,0.074,0.0185));
#1244=CARTESIAN_POINT('',(0.081,0.074,0.0185));
#1245=CARTESIAN_POINT('',(0.04,0.0365,0.));
#1246=CARTESIAN_POINT('',(0.04,0.082,0.));
#1247=CARTESIAN_POINT('',(-0.00100000000000001,0.082,0.));
#1248=CARTESIAN_POINT('',(0.081,0.082,0.));
#1249=CARTESIAN_POINT('',(0.081,0.074,0.));
#1250=CARTESIAN_POINT('',(0.089,0.074,0.));
#1251=CARTESIAN_POINT('',(0.089,0.0365,0.));
#1252=CARTESIAN_POINT('',(0.089,-0.001,0.));
#1253=CARTESIAN_POINT('',(0.081,-0.000999999999999975,0.));
#1254=CARTESIAN_POINT('',(0.081,-0.009,0.));
#1255=CARTESIAN_POINT('',(0.04,-0.009,0.));
#1256=CARTESIAN_POINT('',(-0.001,-0.009,0.));
#1257=CARTESIAN_POINT('',(-0.000999999999999979,-0.000999999999999982,0.));
#1258=CARTESIAN_POINT('',(-0.009,-0.001,0.));
#1259=CARTESIAN_POINT('',(-0.009,0.0365,0.));
#1260=CARTESIAN_POINT('',(-0.009,0.074,0.));
#1261=CARTESIAN_POINT('',(-0.00100000000000001,0.074,0.));
#1262=CARTESIAN_POINT('',(0.081,0.074,0.002));
#1263=CARTESIAN_POINT('',(0.081,0.082,0.002));
#1264=CARTESIAN_POINT('',(0.089,0.074,0.002));
#1265=CARTESIAN_POINT('',(0.089,0.0365,0.002));
#1266=CARTESIAN_POINT('',(0.089,-0.001,0.002));
#1267=CARTESIAN_POINT('',(0.081,-0.000999999999999975,0.002));
#1268=CARTESIAN_POINT('',(0.081,-0.009,0.002));
#1269=CARTESIAN_POINT('',(0.04,-0.009,0.002));
#1270=CARTESIAN_POINT('',(-0.001,-0.009,0.002));
#1271=CARTESIAN_POINT('',(-0.000999999999999979,-0.000999999999999982,0.002));
#1272=CARTESIAN_POINT('',(-0.009,-0.001,0.002));
#1273=CARTESIAN_POINT('',(-0.009,0.0365,0.002));
#1274=CARTESIAN_POINT('',(-0.009,0.074,0.002));
#1275=CARTESIAN_POINT('',(-0.00100000000000001,0.074,0.002));
#1276=CARTESIAN_POINT('',(-0.00100000000000001,0.082,0.002));
#1277=CARTESIAN_POINT('',(0.04,0.082,0.002));
#1278=CARTESIAN_POINT('',(0.016,0.082,0.01275));
#1279=CARTESIAN_POINT('',(0.016,0.082,0.00925));
#1280=CARTESIAN_POINT('',(0.016,0.082,0.01625));
#1281=CARTESIAN_POINT('',(0.021,0.082,0.00925));
#1282=CARTESIAN_POINT('',(0.026,0.082,0.00925));
#1283=CARTESIAN_POINT('',(0.026,0.082,0.01275));
#1284=CARTESIAN_POINT('',(0.026,0.082,0.01625));
#1285=CARTESIAN_POINT('',(0.021,0.082,0.01625));
#1286=CARTESIAN_POINT('',(-0.00382842712474618,-0.00382842712474619,0.0145));
#1287=CARTESIAN_POINT('',(-0.00382842712474618,-0.00382842712474619,0.0145));
#1288=CARTESIAN_POINT('',(-0.00147842712474618,-0.00382842712474619,0.0145));
#1289=CARTESIAN_POINT('',(0.04,0.0365,0.0145));
#1290=CARTESIAN_POINT('',(0.0838284271247462,-0.0038284271247462,0.0145));
#1291=CARTESIAN_POINT('',(0.0838284271247462,-0.0038284271247462,0.0145));
#1292=CARTESIAN_POINT('',(0.0861784271247462,-0.0038284271247462,0.0145));
#1293=CARTESIAN_POINT('',(0.04,0.0365,0.0145));
#1294=CARTESIAN_POINT('',(0.0838284271247462,0.0768284271247462,0.0145));
#1295=CARTESIAN_POINT('',(0.0838284271247462,0.0768284271247462,0.0145));
#1296=CARTESIAN_POINT('',(0.0861784271247462,0.0768284271247462,0.0145));
#1297=CARTESIAN_POINT('',(0.04,0.0365,0.0145));
#1298=CARTESIAN_POINT('',(-0.0038284271247462,0.0768284271247462,0.0145));
#1299=CARTESIAN_POINT('',(-0.0038284271247462,0.0768284271247462,0.0145));
#1300=CARTESIAN_POINT('',(-0.0014784271247462,0.0768284271247462,0.0145));
#1301=CARTESIAN_POINT('',(0.04,0.0365,0.0145));
#1302=CARTESIAN_POINT('',(0.026,0.073998,0.01275));
#1303=CARTESIAN_POINT('',(0.026,0.073998,0.01625));
#1304=CARTESIAN_POINT('',(0.026,0.073998,0.00925));
#1305=CARTESIAN_POINT('',(0.021,0.073998,0.01625));
#1306=CARTESIAN_POINT('',(0.016,0.073998,0.01625));
#1307=CARTESIAN_POINT('',(0.021,0.073998,0.00925));
#1308=CARTESIAN_POINT('',(0.016,0.073998,0.00925));
#1309=CARTESIAN_POINT('',(0.016,0.073998,0.01275));
#1310=MECHANICAL_DESIGN_GEOMETRIC_PRESENTATION_REPRESENTATION('',(#787),
#1311);
#1311=(
GEOMETRIC_REPRESENTATION_CONTEXT(3)
GLOBAL_UNCERTAINTY_ASSIGNED_CONTEXT((#1312))
GLOBAL_UNIT_ASSIGNED_CONTEXT((#1315,#1314,#1313))
REPRESENTATION_CONTEXT('Part 1','TOP_LEVEL_ASSEMBLY_PART')
);
#1312=UNCERTAINTY_MEASURE_WITH_UNIT(LENGTH_MEASURE(1.E-8),#1315,
'DISTANCE_ACCURACY_VALUE','Maximum Tolerance applied to model');
#1313=(
NAMED_UNIT(*)
SI_UNIT($,.STERADIAN.)
SOLID_ANGLE_UNIT()
);
#1314=(
NAMED_UNIT(*)
PLANE_ANGLE_UNIT()
SI_UNIT($,.RADIAN.)
);
#1315=(
LENGTH_UNIT()
NAMED_UNIT(*)
SI_UNIT($,.METRE.)
);
#1316=PRODUCT_DEFINITION_SHAPE('','',#1317);
#1317=PRODUCT_DEFINITION('','',#1319,#1318);
#1318=PRODUCT_DEFINITION_CONTEXT('',#1325,'design');
#1319=PRODUCT_DEFINITION_FORMATION_WITH_SPECIFIED_SOURCE('','',#1321,
 .NOT_KNOWN.);
#1320=PRODUCT_RELATED_PRODUCT_CATEGORY('','',(#1321));
#1321=PRODUCT('Part 1','Part 1','Part 1',(#1323));
#1322=PRODUCT_CATEGORY('','');
#1323=PRODUCT_CONTEXT('',#1325,'mechanical');
#1324=APPLICATION_PROTOCOL_DEFINITION('international standard',
'ap242_managed_model_based_3d_engineering',2020,#1325);
#1325=APPLICATION_CONTEXT('managed model based 3d engineering');
ENDSEC;
END-ISO-10303-21;
